<?xml version="1.0" encoding="utf-8" standalone="no"?>
<!DOCTYPE svg PUBLIC "-//W3C//DTD SVG 1.1//EN"
  "http://www.w3.org/Graphics/SVG/1.1/DTD/svg11.dtd">
<!-- Created with matplotlib (https://matplotlib.org/) -->
<svg height="576pt" version="1.1" viewBox="0 0 792 576" width="792pt" xmlns="http://www.w3.org/2000/svg" xmlns:xlink="http://www.w3.org/1999/xlink">
 <defs>
  <style type="text/css">
*{stroke-linecap:butt;stroke-linejoin:round;}
  </style>
 </defs>
 <g id="figure_1">
  <g id="patch_1">
   <path d="M 0 576 
L 792 576 
L 792 0 
L 0 0 
z
" style="fill:#ffffff;"/>
  </g>
  <g id="axes_1">
   <g id="patch_2">
    <path d="M 99 518.4 
L 712.8 518.4 
L 712.8 46.08 
L 99 46.08 
z
" style="fill:#ffffff;"/>
   </g>
   <g id="patch_3">
    <path clip-path="url(#pa241513bd5)" d="M 126.9 518.4 
L 130.312844 518.4 
L 130.312844 503.889401 
L 126.9 503.889401 
z
" style="fill:#1f77b4;"/>
   </g>
   <g id="patch_4">
    <path clip-path="url(#pa241513bd5)" d="M 131.166055 518.4 
L 134.578899 518.4 
L 134.578899 518.4 
L 131.166055 518.4 
z
" style="fill:#1f77b4;"/>
   </g>
   <g id="patch_5">
    <path clip-path="url(#pa241513bd5)" d="M 135.43211 518.4 
L 138.844954 518.4 
L 138.844954 489.378802 
L 135.43211 489.378802 
z
" style="fill:#1f77b4;"/>
   </g>
   <g id="patch_6">
    <path clip-path="url(#pa241513bd5)" d="M 139.698165 518.4 
L 143.111009 518.4 
L 143.111009 503.889401 
L 139.698165 503.889401 
z
" style="fill:#1f77b4;"/>
   </g>
   <g id="patch_7">
    <path clip-path="url(#pa241513bd5)" d="M 143.96422 518.4 
L 147.377064 518.4 
L 147.377064 518.4 
L 143.96422 518.4 
z
" style="fill:#1f77b4;"/>
   </g>
   <g id="patch_8">
    <path clip-path="url(#pa241513bd5)" d="M 148.230275 518.4 
L 151.643119 518.4 
L 151.643119 518.4 
L 148.230275 518.4 
z
" style="fill:#1f77b4;"/>
   </g>
   <g id="patch_9">
    <path clip-path="url(#pa241513bd5)" d="M 152.49633 518.4 
L 155.909174 518.4 
L 155.909174 474.868203 
L 152.49633 474.868203 
z
" style="fill:#1f77b4;"/>
   </g>
   <g id="patch_10">
    <path clip-path="url(#pa241513bd5)" d="M 156.762385 518.4 
L 160.175229 518.4 
L 160.175229 474.868203 
L 156.762385 474.868203 
z
" style="fill:#1f77b4;"/>
   </g>
   <g id="patch_11">
    <path clip-path="url(#pa241513bd5)" d="M 161.02844 518.4 
L 164.441284 518.4 
L 164.441284 474.868203 
L 161.02844 474.868203 
z
" style="fill:#1f77b4;"/>
   </g>
   <g id="patch_12">
    <path clip-path="url(#pa241513bd5)" d="M 165.294495 518.4 
L 168.707339 518.4 
L 168.707339 518.4 
L 165.294495 518.4 
z
" style="fill:#1f77b4;"/>
   </g>
   <g id="patch_13">
    <path clip-path="url(#pa241513bd5)" d="M 169.56055 518.4 
L 172.973394 518.4 
L 172.973394 503.889401 
L 169.56055 503.889401 
z
" style="fill:#1f77b4;"/>
   </g>
   <g id="patch_14">
    <path clip-path="url(#pa241513bd5)" d="M 173.826606 518.4 
L 177.23945 518.4 
L 177.23945 518.4 
L 173.826606 518.4 
z
" style="fill:#1f77b4;"/>
   </g>
   <g id="patch_15">
    <path clip-path="url(#pa241513bd5)" d="M 178.092661 518.4 
L 181.505505 518.4 
L 181.505505 518.4 
L 178.092661 518.4 
z
" style="fill:#1f77b4;"/>
   </g>
   <g id="patch_16">
    <path clip-path="url(#pa241513bd5)" d="M 182.358716 518.4 
L 185.77156 518.4 
L 185.77156 503.889401 
L 182.358716 503.889401 
z
" style="fill:#1f77b4;"/>
   </g>
   <g id="patch_17">
    <path clip-path="url(#pa241513bd5)" d="M 186.624771 518.4 
L 190.037615 518.4 
L 190.037615 489.378802 
L 186.624771 489.378802 
z
" style="fill:#1f77b4;"/>
   </g>
   <g id="patch_18">
    <path clip-path="url(#pa241513bd5)" d="M 190.890826 518.4 
L 194.30367 518.4 
L 194.30367 518.4 
L 190.890826 518.4 
z
" style="fill:#1f77b4;"/>
   </g>
   <g id="patch_19">
    <path clip-path="url(#pa241513bd5)" d="M 195.156881 518.4 
L 198.569725 518.4 
L 198.569725 518.4 
L 195.156881 518.4 
z
" style="fill:#1f77b4;"/>
   </g>
   <g id="patch_20">
    <path clip-path="url(#pa241513bd5)" d="M 199.422936 518.4 
L 202.83578 518.4 
L 202.83578 503.889401 
L 199.422936 503.889401 
z
" style="fill:#1f77b4;"/>
   </g>
   <g id="patch_21">
    <path clip-path="url(#pa241513bd5)" d="M 203.688991 518.4 
L 207.101835 518.4 
L 207.101835 503.889401 
L 203.688991 503.889401 
z
" style="fill:#1f77b4;"/>
   </g>
   <g id="patch_22">
    <path clip-path="url(#pa241513bd5)" d="M 207.955046 518.4 
L 211.36789 518.4 
L 211.36789 518.4 
L 207.955046 518.4 
z
" style="fill:#1f77b4;"/>
   </g>
   <g id="patch_23">
    <path clip-path="url(#pa241513bd5)" d="M 212.221101 518.4 
L 215.633945 518.4 
L 215.633945 518.4 
L 212.221101 518.4 
z
" style="fill:#1f77b4;"/>
   </g>
   <g id="patch_24">
    <path clip-path="url(#pa241513bd5)" d="M 216.487156 518.4 
L 219.9 518.4 
L 219.9 474.868203 
L 216.487156 474.868203 
z
" style="fill:#1f77b4;"/>
   </g>
   <g id="patch_25">
    <path clip-path="url(#pa241513bd5)" d="M 220.753211 518.4 
L 224.166055 518.4 
L 224.166055 474.868203 
L 220.753211 474.868203 
z
" style="fill:#1f77b4;"/>
   </g>
   <g id="patch_26">
    <path clip-path="url(#pa241513bd5)" d="M 225.019266 518.4 
L 228.43211 518.4 
L 228.43211 474.868203 
L 225.019266 474.868203 
z
" style="fill:#1f77b4;"/>
   </g>
   <g id="patch_27">
    <path clip-path="url(#pa241513bd5)" d="M 229.285321 518.4 
L 232.698165 518.4 
L 232.698165 460.357604 
L 229.285321 460.357604 
z
" style="fill:#1f77b4;"/>
   </g>
   <g id="patch_28">
    <path clip-path="url(#pa241513bd5)" d="M 233.551376 518.4 
L 236.96422 518.4 
L 236.96422 518.4 
L 233.551376 518.4 
z
" style="fill:#1f77b4;"/>
   </g>
   <g id="patch_29">
    <path clip-path="url(#pa241513bd5)" d="M 237.817431 518.4 
L 241.230275 518.4 
L 241.230275 503.889401 
L 237.817431 503.889401 
z
" style="fill:#1f77b4;"/>
   </g>
   <g id="patch_30">
    <path clip-path="url(#pa241513bd5)" d="M 242.083486 518.4 
L 245.49633 518.4 
L 245.49633 518.4 
L 242.083486 518.4 
z
" style="fill:#1f77b4;"/>
   </g>
   <g id="patch_31">
    <path clip-path="url(#pa241513bd5)" d="M 246.349541 518.4 
L 249.762385 518.4 
L 249.762385 503.889401 
L 246.349541 503.889401 
z
" style="fill:#1f77b4;"/>
   </g>
   <g id="patch_32">
    <path clip-path="url(#pa241513bd5)" d="M 250.615596 518.4 
L 254.02844 518.4 
L 254.02844 489.378802 
L 250.615596 489.378802 
z
" style="fill:#1f77b4;"/>
   </g>
   <g id="patch_33">
    <path clip-path="url(#pa241513bd5)" d="M 254.881651 518.4 
L 258.294495 518.4 
L 258.294495 518.4 
L 254.881651 518.4 
z
" style="fill:#1f77b4;"/>
   </g>
   <g id="patch_34">
    <path clip-path="url(#pa241513bd5)" d="M 259.147706 518.4 
L 262.56055 518.4 
L 262.56055 489.378802 
L 259.147706 489.378802 
z
" style="fill:#1f77b4;"/>
   </g>
   <g id="patch_35">
    <path clip-path="url(#pa241513bd5)" d="M 263.413761 518.4 
L 266.826606 518.4 
L 266.826606 503.889401 
L 263.413761 503.889401 
z
" style="fill:#1f77b4;"/>
   </g>
   <g id="patch_36">
    <path clip-path="url(#pa241513bd5)" d="M 267.679817 518.4 
L 271.092661 518.4 
L 271.092661 518.4 
L 267.679817 518.4 
z
" style="fill:#1f77b4;"/>
   </g>
   <g id="patch_37">
    <path clip-path="url(#pa241513bd5)" d="M 271.945872 518.4 
L 275.358716 518.4 
L 275.358716 474.868203 
L 271.945872 474.868203 
z
" style="fill:#1f77b4;"/>
   </g>
   <g id="patch_38">
    <path clip-path="url(#pa241513bd5)" d="M 276.211927 518.4 
L 279.624771 518.4 
L 279.624771 489.378802 
L 276.211927 489.378802 
z
" style="fill:#1f77b4;"/>
   </g>
   <g id="patch_39">
    <path clip-path="url(#pa241513bd5)" d="M 280.477982 518.4 
L 283.890826 518.4 
L 283.890826 503.889401 
L 280.477982 503.889401 
z
" style="fill:#1f77b4;"/>
   </g>
   <g id="patch_40">
    <path clip-path="url(#pa241513bd5)" d="M 284.744037 518.4 
L 288.156881 518.4 
L 288.156881 445.847005 
L 284.744037 445.847005 
z
" style="fill:#1f77b4;"/>
   </g>
   <g id="patch_41">
    <path clip-path="url(#pa241513bd5)" d="M 289.010092 518.4 
L 292.422936 518.4 
L 292.422936 489.378802 
L 289.010092 489.378802 
z
" style="fill:#1f77b4;"/>
   </g>
   <g id="patch_42">
    <path clip-path="url(#pa241513bd5)" d="M 293.276147 518.4 
L 296.688991 518.4 
L 296.688991 518.4 
L 293.276147 518.4 
z
" style="fill:#1f77b4;"/>
   </g>
   <g id="patch_43">
    <path clip-path="url(#pa241513bd5)" d="M 297.542202 518.4 
L 300.955046 518.4 
L 300.955046 445.847005 
L 297.542202 445.847005 
z
" style="fill:#1f77b4;"/>
   </g>
   <g id="patch_44">
    <path clip-path="url(#pa241513bd5)" d="M 301.808257 518.4 
L 305.221101 518.4 
L 305.221101 402.315207 
L 301.808257 402.315207 
z
" style="fill:#1f77b4;"/>
   </g>
   <g id="patch_45">
    <path clip-path="url(#pa241513bd5)" d="M 306.074312 518.4 
L 309.487156 518.4 
L 309.487156 518.4 
L 306.074312 518.4 
z
" style="fill:#1f77b4;"/>
   </g>
   <g id="patch_46">
    <path clip-path="url(#pa241513bd5)" d="M 310.340367 518.4 
L 313.753211 518.4 
L 313.753211 503.889401 
L 310.340367 503.889401 
z
" style="fill:#1f77b4;"/>
   </g>
   <g id="patch_47">
    <path clip-path="url(#pa241513bd5)" d="M 314.606422 518.4 
L 318.019266 518.4 
L 318.019266 445.847005 
L 314.606422 445.847005 
z
" style="fill:#1f77b4;"/>
   </g>
   <g id="patch_48">
    <path clip-path="url(#pa241513bd5)" d="M 318.872477 518.4 
L 322.285321 518.4 
L 322.285321 474.868203 
L 318.872477 474.868203 
z
" style="fill:#1f77b4;"/>
   </g>
   <g id="patch_49">
    <path clip-path="url(#pa241513bd5)" d="M 323.138532 518.4 
L 326.551376 518.4 
L 326.551376 489.378802 
L 323.138532 489.378802 
z
" style="fill:#1f77b4;"/>
   </g>
   <g id="patch_50">
    <path clip-path="url(#pa241513bd5)" d="M 327.404587 518.4 
L 330.817431 518.4 
L 330.817431 518.4 
L 327.404587 518.4 
z
" style="fill:#1f77b4;"/>
   </g>
   <g id="patch_51">
    <path clip-path="url(#pa241513bd5)" d="M 331.670642 518.4 
L 335.083486 518.4 
L 335.083486 503.889401 
L 331.670642 503.889401 
z
" style="fill:#1f77b4;"/>
   </g>
   <g id="patch_52">
    <path clip-path="url(#pa241513bd5)" d="M 335.936697 518.4 
L 339.349541 518.4 
L 339.349541 474.868203 
L 335.936697 474.868203 
z
" style="fill:#1f77b4;"/>
   </g>
   <g id="patch_53">
    <path clip-path="url(#pa241513bd5)" d="M 340.202752 518.4 
L 343.615596 518.4 
L 343.615596 518.4 
L 340.202752 518.4 
z
" style="fill:#1f77b4;"/>
   </g>
   <g id="patch_54">
    <path clip-path="url(#pa241513bd5)" d="M 344.468807 518.4 
L 347.881651 518.4 
L 347.881651 460.357604 
L 344.468807 460.357604 
z
" style="fill:#1f77b4;"/>
   </g>
   <g id="patch_55">
    <path clip-path="url(#pa241513bd5)" d="M 348.734862 518.4 
L 352.147706 518.4 
L 352.147706 489.378802 
L 348.734862 489.378802 
z
" style="fill:#1f77b4;"/>
   </g>
   <g id="patch_56">
    <path clip-path="url(#pa241513bd5)" d="M 353.000917 518.4 
L 356.413761 518.4 
L 356.413761 489.378802 
L 353.000917 489.378802 
z
" style="fill:#1f77b4;"/>
   </g>
   <g id="patch_57">
    <path clip-path="url(#pa241513bd5)" d="M 357.266972 518.4 
L 360.679817 518.4 
L 360.679817 518.4 
L 357.266972 518.4 
z
" style="fill:#1f77b4;"/>
   </g>
   <g id="patch_58">
    <path clip-path="url(#pa241513bd5)" d="M 361.533028 518.4 
L 364.945872 518.4 
L 364.945872 518.4 
L 361.533028 518.4 
z
" style="fill:#1f77b4;"/>
   </g>
   <g id="patch_59">
    <path clip-path="url(#pa241513bd5)" d="M 365.799083 518.4 
L 369.211927 518.4 
L 369.211927 373.294009 
L 365.799083 373.294009 
z
" style="fill:#1f77b4;"/>
   </g>
   <g id="patch_60">
    <path clip-path="url(#pa241513bd5)" d="M 370.065138 518.4 
L 373.477982 518.4 
L 373.477982 315.251613 
L 370.065138 315.251613 
z
" style="fill:#1f77b4;"/>
   </g>
   <g id="patch_61">
    <path clip-path="url(#pa241513bd5)" d="M 374.331193 518.4 
L 377.744037 518.4 
L 377.744037 431.336406 
L 374.331193 431.336406 
z
" style="fill:#1f77b4;"/>
   </g>
   <g id="patch_62">
    <path clip-path="url(#pa241513bd5)" d="M 378.597248 518.4 
L 382.010092 518.4 
L 382.010092 344.272811 
L 378.597248 344.272811 
z
" style="fill:#1f77b4;"/>
   </g>
   <g id="patch_63">
    <path clip-path="url(#pa241513bd5)" d="M 382.863303 518.4 
L 386.276147 518.4 
L 386.276147 503.889401 
L 382.863303 503.889401 
z
" style="fill:#1f77b4;"/>
   </g>
   <g id="patch_64">
    <path clip-path="url(#pa241513bd5)" d="M 387.129358 518.4 
L 390.542202 518.4 
L 390.542202 518.4 
L 387.129358 518.4 
z
" style="fill:#1f77b4;"/>
   </g>
   <g id="patch_65">
    <path clip-path="url(#pa241513bd5)" d="M 391.395413 518.4 
L 394.808257 518.4 
L 394.808257 518.4 
L 391.395413 518.4 
z
" style="fill:#1f77b4;"/>
   </g>
   <g id="patch_66">
    <path clip-path="url(#pa241513bd5)" d="M 395.661468 518.4 
L 399.074312 518.4 
L 399.074312 445.847005 
L 395.661468 445.847005 
z
" style="fill:#1f77b4;"/>
   </g>
   <g id="patch_67">
    <path clip-path="url(#pa241513bd5)" d="M 399.927523 518.4 
L 403.340367 518.4 
L 403.340367 431.336406 
L 399.927523 431.336406 
z
" style="fill:#1f77b4;"/>
   </g>
   <g id="patch_68">
    <path clip-path="url(#pa241513bd5)" d="M 404.193578 518.4 
L 407.606422 518.4 
L 407.606422 474.868203 
L 404.193578 474.868203 
z
" style="fill:#1f77b4;"/>
   </g>
   <g id="patch_69">
    <path clip-path="url(#pa241513bd5)" d="M 408.459633 518.4 
L 411.872477 518.4 
L 411.872477 503.889401 
L 408.459633 503.889401 
z
" style="fill:#1f77b4;"/>
   </g>
   <g id="patch_70">
    <path clip-path="url(#pa241513bd5)" d="M 412.725688 518.4 
L 416.138532 518.4 
L 416.138532 503.889401 
L 412.725688 503.889401 
z
" style="fill:#1f77b4;"/>
   </g>
   <g id="patch_71">
    <path clip-path="url(#pa241513bd5)" d="M 416.991743 518.4 
L 420.404587 518.4 
L 420.404587 518.4 
L 416.991743 518.4 
z
" style="fill:#1f77b4;"/>
   </g>
   <g id="patch_72">
    <path clip-path="url(#pa241513bd5)" d="M 421.257798 518.4 
L 424.670642 518.4 
L 424.670642 474.868203 
L 421.257798 474.868203 
z
" style="fill:#1f77b4;"/>
   </g>
   <g id="patch_73">
    <path clip-path="url(#pa241513bd5)" d="M 425.523853 518.4 
L 428.936697 518.4 
L 428.936697 402.315207 
L 425.523853 402.315207 
z
" style="fill:#1f77b4;"/>
   </g>
   <g id="patch_74">
    <path clip-path="url(#pa241513bd5)" d="M 429.789908 518.4 
L 433.202752 518.4 
L 433.202752 416.825806 
L 429.789908 416.825806 
z
" style="fill:#1f77b4;"/>
   </g>
   <g id="patch_75">
    <path clip-path="url(#pa241513bd5)" d="M 434.055963 518.4 
L 437.468807 518.4 
L 437.468807 387.804608 
L 434.055963 387.804608 
z
" style="fill:#1f77b4;"/>
   </g>
   <g id="patch_76">
    <path clip-path="url(#pa241513bd5)" d="M 438.322018 518.4 
L 441.734862 518.4 
L 441.734862 489.378802 
L 438.322018 489.378802 
z
" style="fill:#1f77b4;"/>
   </g>
   <g id="patch_77">
    <path clip-path="url(#pa241513bd5)" d="M 442.588073 518.4 
L 446.000917 518.4 
L 446.000917 503.889401 
L 442.588073 503.889401 
z
" style="fill:#1f77b4;"/>
   </g>
   <g id="patch_78">
    <path clip-path="url(#pa241513bd5)" d="M 446.854128 518.4 
L 450.266972 518.4 
L 450.266972 518.4 
L 446.854128 518.4 
z
" style="fill:#1f77b4;"/>
   </g>
   <g id="patch_79">
    <path clip-path="url(#pa241513bd5)" d="M 451.120183 518.4 
L 454.533028 518.4 
L 454.533028 402.315207 
L 451.120183 402.315207 
z
" style="fill:#1f77b4;"/>
   </g>
   <g id="patch_80">
    <path clip-path="url(#pa241513bd5)" d="M 455.386239 518.4 
L 458.799083 518.4 
L 458.799083 329.762212 
L 455.386239 329.762212 
z
" style="fill:#1f77b4;"/>
   </g>
   <g id="patch_81">
    <path clip-path="url(#pa241513bd5)" d="M 459.652294 518.4 
L 463.065138 518.4 
L 463.065138 460.357604 
L 459.652294 460.357604 
z
" style="fill:#1f77b4;"/>
   </g>
   <g id="patch_82">
    <path clip-path="url(#pa241513bd5)" d="M 463.918349 518.4 
L 467.331193 518.4 
L 467.331193 402.315207 
L 463.918349 402.315207 
z
" style="fill:#1f77b4;"/>
   </g>
   <g id="patch_83">
    <path clip-path="url(#pa241513bd5)" d="M 468.184404 518.4 
L 471.597248 518.4 
L 471.597248 416.825806 
L 468.184404 416.825806 
z
" style="fill:#1f77b4;"/>
   </g>
   <g id="patch_84">
    <path clip-path="url(#pa241513bd5)" d="M 472.450459 518.4 
L 475.863303 518.4 
L 475.863303 460.357604 
L 472.450459 460.357604 
z
" style="fill:#1f77b4;"/>
   </g>
   <g id="patch_85">
    <path clip-path="url(#pa241513bd5)" d="M 476.716514 518.4 
L 480.129358 518.4 
L 480.129358 518.4 
L 476.716514 518.4 
z
" style="fill:#1f77b4;"/>
   </g>
   <g id="patch_86">
    <path clip-path="url(#pa241513bd5)" d="M 480.982569 518.4 
L 484.395413 518.4 
L 484.395413 344.272811 
L 480.982569 344.272811 
z
" style="fill:#1f77b4;"/>
   </g>
   <g id="patch_87">
    <path clip-path="url(#pa241513bd5)" d="M 485.248624 518.4 
L 488.661468 518.4 
L 488.661468 373.294009 
L 485.248624 373.294009 
z
" style="fill:#1f77b4;"/>
   </g>
   <g id="patch_88">
    <path clip-path="url(#pa241513bd5)" d="M 489.514679 518.4 
L 492.927523 518.4 
L 492.927523 416.825806 
L 489.514679 416.825806 
z
" style="fill:#1f77b4;"/>
   </g>
   <g id="patch_89">
    <path clip-path="url(#pa241513bd5)" d="M 493.780734 518.4 
L 497.193578 518.4 
L 497.193578 416.825806 
L 493.780734 416.825806 
z
" style="fill:#1f77b4;"/>
   </g>
   <g id="patch_90">
    <path clip-path="url(#pa241513bd5)" d="M 498.046789 518.4 
L 501.459633 518.4 
L 501.459633 373.294009 
L 498.046789 373.294009 
z
" style="fill:#1f77b4;"/>
   </g>
   <g id="patch_91">
    <path clip-path="url(#pa241513bd5)" d="M 502.312844 518.4 
L 505.725688 518.4 
L 505.725688 489.378802 
L 502.312844 489.378802 
z
" style="fill:#1f77b4;"/>
   </g>
   <g id="patch_92">
    <path clip-path="url(#pa241513bd5)" d="M 506.578899 518.4 
L 509.991743 518.4 
L 509.991743 518.4 
L 506.578899 518.4 
z
" style="fill:#1f77b4;"/>
   </g>
   <g id="patch_93">
    <path clip-path="url(#pa241513bd5)" d="M 510.844954 518.4 
L 514.257798 518.4 
L 514.257798 460.357604 
L 510.844954 460.357604 
z
" style="fill:#1f77b4;"/>
   </g>
   <g id="patch_94">
    <path clip-path="url(#pa241513bd5)" d="M 515.111009 518.4 
L 518.523853 518.4 
L 518.523853 141.124424 
L 515.111009 141.124424 
z
" style="fill:#1f77b4;"/>
   </g>
   <g id="patch_95">
    <path clip-path="url(#pa241513bd5)" d="M 519.377064 518.4 
L 522.789908 518.4 
L 522.789908 416.825806 
L 519.377064 416.825806 
z
" style="fill:#1f77b4;"/>
   </g>
   <g id="patch_96">
    <path clip-path="url(#pa241513bd5)" d="M 523.643119 518.4 
L 527.055963 518.4 
L 527.055963 271.719816 
L 523.643119 271.719816 
z
" style="fill:#1f77b4;"/>
   </g>
   <g id="patch_97">
    <path clip-path="url(#pa241513bd5)" d="M 527.909174 518.4 
L 531.322018 518.4 
L 531.322018 518.4 
L 527.909174 518.4 
z
" style="fill:#1f77b4;"/>
   </g>
   <g id="patch_98">
    <path clip-path="url(#pa241513bd5)" d="M 532.175229 518.4 
L 535.588073 518.4 
L 535.588073 474.868203 
L 532.175229 474.868203 
z
" style="fill:#1f77b4;"/>
   </g>
   <g id="patch_99">
    <path clip-path="url(#pa241513bd5)" d="M 536.441284 518.4 
L 539.854128 518.4 
L 539.854128 460.357604 
L 536.441284 460.357604 
z
" style="fill:#1f77b4;"/>
   </g>
   <g id="patch_100">
    <path clip-path="url(#pa241513bd5)" d="M 540.707339 518.4 
L 544.120183 518.4 
L 544.120183 373.294009 
L 540.707339 373.294009 
z
" style="fill:#1f77b4;"/>
   </g>
   <g id="patch_101">
    <path clip-path="url(#pa241513bd5)" d="M 544.973394 518.4 
L 548.386239 518.4 
L 548.386239 445.847005 
L 544.973394 445.847005 
z
" style="fill:#1f77b4;"/>
   </g>
   <g id="patch_102">
    <path clip-path="url(#pa241513bd5)" d="M 549.23945 518.4 
L 552.652294 518.4 
L 552.652294 387.804608 
L 549.23945 387.804608 
z
" style="fill:#1f77b4;"/>
   </g>
   <g id="patch_103">
    <path clip-path="url(#pa241513bd5)" d="M 553.505505 518.4 
L 556.918349 518.4 
L 556.918349 431.336406 
L 553.505505 431.336406 
z
" style="fill:#1f77b4;"/>
   </g>
   <g id="patch_104">
    <path clip-path="url(#pa241513bd5)" d="M 557.77156 518.4 
L 561.184404 518.4 
L 561.184404 474.868203 
L 557.77156 474.868203 
z
" style="fill:#1f77b4;"/>
   </g>
   <g id="patch_105">
    <path clip-path="url(#pa241513bd5)" d="M 562.037615 518.4 
L 565.450459 518.4 
L 565.450459 474.868203 
L 562.037615 474.868203 
z
" style="fill:#1f77b4;"/>
   </g>
   <g id="patch_106">
    <path clip-path="url(#pa241513bd5)" d="M 566.30367 518.4 
L 569.716514 518.4 
L 569.716514 518.4 
L 566.30367 518.4 
z
" style="fill:#1f77b4;"/>
   </g>
   <g id="patch_107">
    <path clip-path="url(#pa241513bd5)" d="M 570.569725 518.4 
L 573.982569 518.4 
L 573.982569 474.868203 
L 570.569725 474.868203 
z
" style="fill:#1f77b4;"/>
   </g>
   <g id="patch_108">
    <path clip-path="url(#pa241513bd5)" d="M 574.83578 518.4 
L 578.248624 518.4 
L 578.248624 416.825806 
L 574.83578 416.825806 
z
" style="fill:#1f77b4;"/>
   </g>
   <g id="patch_109">
    <path clip-path="url(#pa241513bd5)" d="M 579.101835 518.4 
L 582.514679 518.4 
L 582.514679 141.124424 
L 579.101835 141.124424 
z
" style="fill:#1f77b4;"/>
   </g>
   <g id="patch_110">
    <path clip-path="url(#pa241513bd5)" d="M 583.36789 518.4 
L 586.780734 518.4 
L 586.780734 373.294009 
L 583.36789 373.294009 
z
" style="fill:#1f77b4;"/>
   </g>
   <g id="patch_111">
    <path clip-path="url(#pa241513bd5)" d="M 587.633945 518.4 
L 591.046789 518.4 
L 591.046789 387.804608 
L 587.633945 387.804608 
z
" style="fill:#1f77b4;"/>
   </g>
   <g id="patch_112">
    <path clip-path="url(#pa241513bd5)" d="M 591.9 518.4 
L 595.312844 518.4 
L 595.312844 489.378802 
L 591.9 489.378802 
z
" style="fill:#1f77b4;"/>
   </g>
   <g id="patch_113">
    <path clip-path="url(#pa241513bd5)" d="M 596.166055 518.4 
L 599.578899 518.4 
L 599.578899 503.889401 
L 596.166055 503.889401 
z
" style="fill:#1f77b4;"/>
   </g>
   <g id="patch_114">
    <path clip-path="url(#pa241513bd5)" d="M 600.43211 518.4 
L 603.844954 518.4 
L 603.844954 387.804608 
L 600.43211 387.804608 
z
" style="fill:#1f77b4;"/>
   </g>
   <g id="patch_115">
    <path clip-path="url(#pa241513bd5)" d="M 604.698165 518.4 
L 608.111009 518.4 
L 608.111009 199.16682 
L 604.698165 199.16682 
z
" style="fill:#1f77b4;"/>
   </g>
   <g id="patch_116">
    <path clip-path="url(#pa241513bd5)" d="M 608.96422 518.4 
L 612.377064 518.4 
L 612.377064 358.78341 
L 608.96422 358.78341 
z
" style="fill:#1f77b4;"/>
   </g>
   <g id="patch_117">
    <path clip-path="url(#pa241513bd5)" d="M 613.230275 518.4 
L 616.643119 518.4 
L 616.643119 474.868203 
L 613.230275 474.868203 
z
" style="fill:#1f77b4;"/>
   </g>
   <g id="patch_118">
    <path clip-path="url(#pa241513bd5)" d="M 617.49633 518.4 
L 620.909174 518.4 
L 620.909174 155.635023 
L 617.49633 155.635023 
z
" style="fill:#1f77b4;"/>
   </g>
   <g id="patch_119">
    <path clip-path="url(#pa241513bd5)" d="M 621.762385 518.4 
L 625.175229 518.4 
L 625.175229 518.4 
L 621.762385 518.4 
z
" style="fill:#1f77b4;"/>
   </g>
   <g id="patch_120">
    <path clip-path="url(#pa241513bd5)" d="M 626.02844 518.4 
L 629.441284 518.4 
L 629.441284 518.4 
L 626.02844 518.4 
z
" style="fill:#1f77b4;"/>
   </g>
   <g id="patch_121">
    <path clip-path="url(#pa241513bd5)" d="M 630.294495 518.4 
L 633.707339 518.4 
L 633.707339 242.698618 
L 630.294495 242.698618 
z
" style="fill:#1f77b4;"/>
   </g>
   <g id="patch_122">
    <path clip-path="url(#pa241513bd5)" d="M 634.56055 518.4 
L 637.973394 518.4 
L 637.973394 402.315207 
L 634.56055 402.315207 
z
" style="fill:#1f77b4;"/>
   </g>
   <g id="patch_123">
    <path clip-path="url(#pa241513bd5)" d="M 638.826606 518.4 
L 642.23945 518.4 
L 642.23945 199.16682 
L 638.826606 199.16682 
z
" style="fill:#1f77b4;"/>
   </g>
   <g id="patch_124">
    <path clip-path="url(#pa241513bd5)" d="M 643.092661 518.4 
L 646.505505 518.4 
L 646.505505 329.762212 
L 643.092661 329.762212 
z
" style="fill:#1f77b4;"/>
   </g>
   <g id="patch_125">
    <path clip-path="url(#pa241513bd5)" d="M 647.358716 518.4 
L 650.77156 518.4 
L 650.77156 431.336406 
L 647.358716 431.336406 
z
" style="fill:#1f77b4;"/>
   </g>
   <g id="patch_126">
    <path clip-path="url(#pa241513bd5)" d="M 651.624771 518.4 
L 655.037615 518.4 
L 655.037615 489.378802 
L 651.624771 489.378802 
z
" style="fill:#1f77b4;"/>
   </g>
   <g id="patch_127">
    <path clip-path="url(#pa241513bd5)" d="M 655.890826 518.4 
L 659.30367 518.4 
L 659.30367 489.378802 
L 655.890826 489.378802 
z
" style="fill:#1f77b4;"/>
   </g>
   <g id="patch_128">
    <path clip-path="url(#pa241513bd5)" d="M 660.156881 518.4 
L 663.569725 518.4 
L 663.569725 300.741014 
L 660.156881 300.741014 
z
" style="fill:#1f77b4;"/>
   </g>
   <g id="patch_129">
    <path clip-path="url(#pa241513bd5)" d="M 664.422936 518.4 
L 667.83578 518.4 
L 667.83578 431.336406 
L 664.422936 431.336406 
z
" style="fill:#1f77b4;"/>
   </g>
   <g id="patch_130">
    <path clip-path="url(#pa241513bd5)" d="M 668.688991 518.4 
L 672.101835 518.4 
L 672.101835 271.719816 
L 668.688991 271.719816 
z
" style="fill:#1f77b4;"/>
   </g>
   <g id="patch_131">
    <path clip-path="url(#pa241513bd5)" d="M 672.955046 518.4 
L 676.36789 518.4 
L 676.36789 315.251613 
L 672.955046 315.251613 
z
" style="fill:#1f77b4;"/>
   </g>
   <g id="patch_132">
    <path clip-path="url(#pa241513bd5)" d="M 677.221101 518.4 
L 680.633945 518.4 
L 680.633945 68.571429 
L 677.221101 68.571429 
z
" style="fill:#1f77b4;"/>
   </g>
   <g id="patch_133">
    <path clip-path="url(#pa241513bd5)" d="M 681.487156 518.4 
L 684.9 518.4 
L 684.9 489.378802 
L 681.487156 489.378802 
z
" style="fill:#1f77b4;"/>
   </g>
   <g id="matplotlib.axis_1">
    <g id="xtick_1">
     <g id="line2d_1">
      <path clip-path="url(#pa241513bd5)" d="M 158.468807 518.4 
L 158.468807 46.08 
" style="fill:none;stroke:#b0b0b0;stroke-linecap:square;stroke-width:0.8;"/>
     </g>
     <g id="line2d_2">
      <defs>
       <path d="M 0 0 
L 0 3.5 
" id="m551bec5cd1" style="stroke:#000000;stroke-width:0.8;"/>
      </defs>
      <g>
       <use style="stroke:#000000;stroke-width:0.8;" x="158.468807" xlink:href="#m551bec5cd1" y="518.4"/>
      </g>
     </g>
     <g id="text_1">
      <!--  -->
      <g transform="translate(158.468807 532.998438)scale(0.1 -0.1)"/>
      <!-- Apr -->
      <defs>
       <path d="M 34.1875 63.1875 
L 20.796875 26.90625 
L 47.609375 26.90625 
z
M 28.609375 72.90625 
L 39.796875 72.90625 
L 67.578125 0 
L 57.328125 0 
L 50.6875 18.703125 
L 17.828125 18.703125 
L 11.1875 0 
L 0.78125 0 
z
" id="DejaVuSans-65"/>
       <path d="M 18.109375 8.203125 
L 18.109375 -20.796875 
L 9.078125 -20.796875 
L 9.078125 54.6875 
L 18.109375 54.6875 
L 18.109375 46.390625 
Q 20.953125 51.265625 25.265625 53.625 
Q 29.59375 56 35.59375 56 
Q 45.5625 56 51.78125 48.09375 
Q 58.015625 40.1875 58.015625 27.296875 
Q 58.015625 14.40625 51.78125 6.484375 
Q 45.5625 -1.421875 35.59375 -1.421875 
Q 29.59375 -1.421875 25.265625 0.953125 
Q 20.953125 3.328125 18.109375 8.203125 
z
M 48.6875 27.296875 
Q 48.6875 37.203125 44.609375 42.84375 
Q 40.53125 48.484375 33.40625 48.484375 
Q 26.265625 48.484375 22.1875 42.84375 
Q 18.109375 37.203125 18.109375 27.296875 
Q 18.109375 17.390625 22.1875 11.75 
Q 26.265625 6.109375 33.40625 6.109375 
Q 40.53125 6.109375 44.609375 11.75 
Q 48.6875 17.390625 48.6875 27.296875 
z
" id="DejaVuSans-112"/>
       <path d="M 41.109375 46.296875 
Q 39.59375 47.171875 37.8125 47.578125 
Q 36.03125 48 33.890625 48 
Q 26.265625 48 22.1875 43.046875 
Q 18.109375 38.09375 18.109375 28.8125 
L 18.109375 0 
L 9.078125 0 
L 9.078125 54.6875 
L 18.109375 54.6875 
L 18.109375 46.1875 
Q 20.953125 51.171875 25.484375 53.578125 
Q 30.03125 56 36.53125 56 
Q 37.453125 56 38.578125 55.875 
Q 39.703125 55.765625 41.0625 55.515625 
z
" id="DejaVuSans-114"/>
      </defs>
      <g transform="translate(149.818807 544.19625)scale(0.1 -0.1)">
       <use xlink:href="#DejaVuSans-65"/>
       <use x="68.408203" xlink:href="#DejaVuSans-112"/>
       <use x="131.884766" xlink:href="#DejaVuSans-114"/>
      </g>
     </g>
    </g>
    <g id="xtick_2">
     <g id="line2d_3">
      <path clip-path="url(#pa241513bd5)" d="M 286.450459 518.4 
L 286.450459 46.08 
" style="fill:none;stroke:#b0b0b0;stroke-linecap:square;stroke-width:0.8;"/>
     </g>
     <g id="line2d_4">
      <g>
       <use style="stroke:#000000;stroke-width:0.8;" x="286.450459" xlink:href="#m551bec5cd1" y="518.4"/>
      </g>
     </g>
     <g id="text_2">
      <!--  -->
      <g transform="translate(286.450459 532.998438)scale(0.1 -0.1)"/>
      <!-- May -->
      <defs>
       <path d="M 9.8125 72.90625 
L 24.515625 72.90625 
L 43.109375 23.296875 
L 61.8125 72.90625 
L 76.515625 72.90625 
L 76.515625 0 
L 66.890625 0 
L 66.890625 64.015625 
L 48.09375 14.015625 
L 38.1875 14.015625 
L 19.390625 64.015625 
L 19.390625 0 
L 9.8125 0 
z
" id="DejaVuSans-77"/>
       <path d="M 34.28125 27.484375 
Q 23.390625 27.484375 19.1875 25 
Q 14.984375 22.515625 14.984375 16.5 
Q 14.984375 11.71875 18.140625 8.90625 
Q 21.296875 6.109375 26.703125 6.109375 
Q 34.1875 6.109375 38.703125 11.40625 
Q 43.21875 16.703125 43.21875 25.484375 
L 43.21875 27.484375 
z
M 52.203125 31.203125 
L 52.203125 0 
L 43.21875 0 
L 43.21875 8.296875 
Q 40.140625 3.328125 35.546875 0.953125 
Q 30.953125 -1.421875 24.3125 -1.421875 
Q 15.921875 -1.421875 10.953125 3.296875 
Q 6 8.015625 6 15.921875 
Q 6 25.140625 12.171875 29.828125 
Q 18.359375 34.515625 30.609375 34.515625 
L 43.21875 34.515625 
L 43.21875 35.40625 
Q 43.21875 41.609375 39.140625 45 
Q 35.0625 48.390625 27.6875 48.390625 
Q 23 48.390625 18.546875 47.265625 
Q 14.109375 46.140625 10.015625 43.890625 
L 10.015625 52.203125 
Q 14.9375 54.109375 19.578125 55.046875 
Q 24.21875 56 28.609375 56 
Q 40.484375 56 46.34375 49.84375 
Q 52.203125 43.703125 52.203125 31.203125 
z
" id="DejaVuSans-97"/>
       <path d="M 32.171875 -5.078125 
Q 28.375 -14.84375 24.75 -17.8125 
Q 21.140625 -20.796875 15.09375 -20.796875 
L 7.90625 -20.796875 
L 7.90625 -13.28125 
L 13.1875 -13.28125 
Q 16.890625 -13.28125 18.9375 -11.515625 
Q 21 -9.765625 23.484375 -3.21875 
L 25.09375 0.875 
L 2.984375 54.6875 
L 12.5 54.6875 
L 29.59375 11.921875 
L 46.6875 54.6875 
L 56.203125 54.6875 
z
" id="DejaVuSans-121"/>
      </defs>
      <g transform="translate(276.112959 544.19625)scale(0.1 -0.1)">
       <use xlink:href="#DejaVuSans-77"/>
       <use x="86.279297" xlink:href="#DejaVuSans-97"/>
       <use x="147.558594" xlink:href="#DejaVuSans-121"/>
      </g>
     </g>
    </g>
    <g id="xtick_3">
     <g id="line2d_5">
      <path clip-path="url(#pa241513bd5)" d="M 418.698165 518.4 
L 418.698165 46.08 
" style="fill:none;stroke:#b0b0b0;stroke-linecap:square;stroke-width:0.8;"/>
     </g>
     <g id="line2d_6">
      <g>
       <use style="stroke:#000000;stroke-width:0.8;" x="418.698165" xlink:href="#m551bec5cd1" y="518.4"/>
      </g>
     </g>
     <g id="text_3">
      <!--  -->
      <g transform="translate(418.698165 532.998438)scale(0.1 -0.1)"/>
      <!-- Jun -->
      <defs>
       <path d="M 9.8125 72.90625 
L 19.671875 72.90625 
L 19.671875 5.078125 
Q 19.671875 -8.109375 14.671875 -14.0625 
Q 9.671875 -20.015625 -1.421875 -20.015625 
L -5.171875 -20.015625 
L -5.171875 -11.71875 
L -2.09375 -11.71875 
Q 4.4375 -11.71875 7.125 -8.046875 
Q 9.8125 -4.390625 9.8125 5.078125 
z
" id="DejaVuSans-74"/>
       <path d="M 8.5 21.578125 
L 8.5 54.6875 
L 17.484375 54.6875 
L 17.484375 21.921875 
Q 17.484375 14.15625 20.5 10.265625 
Q 23.53125 6.390625 29.59375 6.390625 
Q 36.859375 6.390625 41.078125 11.03125 
Q 45.3125 15.671875 45.3125 23.6875 
L 45.3125 54.6875 
L 54.296875 54.6875 
L 54.296875 0 
L 45.3125 0 
L 45.3125 8.40625 
Q 42.046875 3.421875 37.71875 1 
Q 33.40625 -1.421875 27.6875 -1.421875 
Q 18.265625 -1.421875 13.375 4.4375 
Q 8.5 10.296875 8.5 21.578125 
z
M 31.109375 56 
z
" id="DejaVuSans-117"/>
       <path d="M 54.890625 33.015625 
L 54.890625 0 
L 45.90625 0 
L 45.90625 32.71875 
Q 45.90625 40.484375 42.875 44.328125 
Q 39.84375 48.1875 33.796875 48.1875 
Q 26.515625 48.1875 22.3125 43.546875 
Q 18.109375 38.921875 18.109375 30.90625 
L 18.109375 0 
L 9.078125 0 
L 9.078125 54.6875 
L 18.109375 54.6875 
L 18.109375 46.1875 
Q 21.34375 51.125 25.703125 53.5625 
Q 30.078125 56 35.796875 56 
Q 45.21875 56 50.046875 50.171875 
Q 54.890625 44.34375 54.890625 33.015625 
z
" id="DejaVuSans-110"/>
      </defs>
      <g transform="translate(410.885665 544.19625)scale(0.1 -0.1)">
       <use xlink:href="#DejaVuSans-74"/>
       <use x="29.492188" xlink:href="#DejaVuSans-117"/>
       <use x="92.871094" xlink:href="#DejaVuSans-110"/>
      </g>
     </g>
    </g>
    <g id="xtick_4">
     <g id="line2d_7">
      <path clip-path="url(#pa241513bd5)" d="M 546.679817 518.4 
L 546.679817 46.08 
" style="fill:none;stroke:#b0b0b0;stroke-linecap:square;stroke-width:0.8;"/>
     </g>
     <g id="line2d_8">
      <g>
       <use style="stroke:#000000;stroke-width:0.8;" x="546.679817" xlink:href="#m551bec5cd1" y="518.4"/>
      </g>
     </g>
     <g id="text_4">
      <!--  -->
      <g transform="translate(546.679817 532.998438)scale(0.1 -0.1)"/>
      <!-- Jul -->
      <defs>
       <path d="M 9.421875 75.984375 
L 18.40625 75.984375 
L 18.40625 0 
L 9.421875 0 
z
" id="DejaVuSans-108"/>
      </defs>
      <g transform="translate(540.647004 544.19625)scale(0.1 -0.1)">
       <use xlink:href="#DejaVuSans-74"/>
       <use x="29.492188" xlink:href="#DejaVuSans-117"/>
       <use x="92.871094" xlink:href="#DejaVuSans-108"/>
      </g>
     </g>
    </g>
    <g id="xtick_5">
     <g id="line2d_9">
      <path clip-path="url(#pa241513bd5)" d="M 678.927523 518.4 
L 678.927523 46.08 
" style="fill:none;stroke:#b0b0b0;stroke-linecap:square;stroke-width:0.8;"/>
     </g>
     <g id="line2d_10">
      <g>
       <use style="stroke:#000000;stroke-width:0.8;" x="678.927523" xlink:href="#m551bec5cd1" y="518.4"/>
      </g>
     </g>
     <g id="text_5">
      <!--  -->
      <g transform="translate(678.927523 532.998438)scale(0.1 -0.1)"/>
      <!-- Aug -->
      <defs>
       <path d="M 45.40625 27.984375 
Q 45.40625 37.75 41.375 43.109375 
Q 37.359375 48.484375 30.078125 48.484375 
Q 22.859375 48.484375 18.828125 43.109375 
Q 14.796875 37.75 14.796875 27.984375 
Q 14.796875 18.265625 18.828125 12.890625 
Q 22.859375 7.515625 30.078125 7.515625 
Q 37.359375 7.515625 41.375 12.890625 
Q 45.40625 18.265625 45.40625 27.984375 
z
M 54.390625 6.78125 
Q 54.390625 -7.171875 48.1875 -13.984375 
Q 42 -20.796875 29.203125 -20.796875 
Q 24.46875 -20.796875 20.265625 -20.09375 
Q 16.0625 -19.390625 12.109375 -17.921875 
L 12.109375 -9.1875 
Q 16.0625 -11.328125 19.921875 -12.34375 
Q 23.78125 -13.375 27.78125 -13.375 
Q 36.625 -13.375 41.015625 -8.765625 
Q 45.40625 -4.15625 45.40625 5.171875 
L 45.40625 9.625 
Q 42.625 4.78125 38.28125 2.390625 
Q 33.9375 0 27.875 0 
Q 17.828125 0 11.671875 7.65625 
Q 5.515625 15.328125 5.515625 27.984375 
Q 5.515625 40.671875 11.671875 48.328125 
Q 17.828125 56 27.875 56 
Q 33.9375 56 38.28125 53.609375 
Q 42.625 51.21875 45.40625 46.390625 
L 45.40625 54.6875 
L 54.390625 54.6875 
z
" id="DejaVuSans-103"/>
      </defs>
      <g transform="translate(669.164242 544.19625)scale(0.1 -0.1)">
       <use xlink:href="#DejaVuSans-65"/>
       <use x="68.408203" xlink:href="#DejaVuSans-117"/>
       <use x="131.787109" xlink:href="#DejaVuSans-103"/>
      </g>
     </g>
    </g>
    <g id="xtick_6">
     <g id="line2d_11">
      <path clip-path="url(#pa241513bd5)" d="M 120.074312 518.4 
L 120.074312 46.08 
" style="fill:none;stroke:#b0b0b0;stroke-linecap:square;stroke-width:0.8;"/>
     </g>
     <g id="line2d_12">
      <defs>
       <path d="M 0 0 
L 0 2 
" id="m9dd2d707e5" style="stroke:#000000;stroke-width:0.6;"/>
      </defs>
      <g>
       <use style="stroke:#000000;stroke-width:0.6;" x="120.074312" xlink:href="#m9dd2d707e5" y="518.4"/>
      </g>
     </g>
     <g id="text_6">
      <!-- 23 -->
      <defs>
       <path d="M 19.1875 8.296875 
L 53.609375 8.296875 
L 53.609375 0 
L 7.328125 0 
L 7.328125 8.296875 
Q 12.9375 14.109375 22.625 23.890625 
Q 32.328125 33.6875 34.8125 36.53125 
Q 39.546875 41.84375 41.421875 45.53125 
Q 43.3125 49.21875 43.3125 52.78125 
Q 43.3125 58.59375 39.234375 62.25 
Q 35.15625 65.921875 28.609375 65.921875 
Q 23.96875 65.921875 18.8125 64.3125 
Q 13.671875 62.703125 7.8125 59.421875 
L 7.8125 69.390625 
Q 13.765625 71.78125 18.9375 73 
Q 24.125 74.21875 28.421875 74.21875 
Q 39.75 74.21875 46.484375 68.546875 
Q 53.21875 62.890625 53.21875 53.421875 
Q 53.21875 48.921875 51.53125 44.890625 
Q 49.859375 40.875 45.40625 35.40625 
Q 44.1875 33.984375 37.640625 27.21875 
Q 31.109375 20.453125 19.1875 8.296875 
z
" id="DejaVuSans-50"/>
       <path d="M 40.578125 39.3125 
Q 47.65625 37.796875 51.625 33 
Q 55.609375 28.21875 55.609375 21.1875 
Q 55.609375 10.40625 48.1875 4.484375 
Q 40.765625 -1.421875 27.09375 -1.421875 
Q 22.515625 -1.421875 17.65625 -0.515625 
Q 12.796875 0.390625 7.625 2.203125 
L 7.625 11.71875 
Q 11.71875 9.328125 16.59375 8.109375 
Q 21.484375 6.890625 26.8125 6.890625 
Q 36.078125 6.890625 40.9375 10.546875 
Q 45.796875 14.203125 45.796875 21.1875 
Q 45.796875 27.640625 41.28125 31.265625 
Q 36.765625 34.90625 28.71875 34.90625 
L 20.21875 34.90625 
L 20.21875 43.015625 
L 29.109375 43.015625 
Q 36.375 43.015625 40.234375 45.921875 
Q 44.09375 48.828125 44.09375 54.296875 
Q 44.09375 59.90625 40.109375 62.90625 
Q 36.140625 65.921875 28.71875 65.921875 
Q 24.65625 65.921875 20.015625 65.03125 
Q 15.375 64.15625 9.8125 62.3125 
L 9.8125 71.09375 
Q 15.4375 72.65625 20.34375 73.4375 
Q 25.25 74.21875 29.59375 74.21875 
Q 40.828125 74.21875 47.359375 69.109375 
Q 53.90625 64.015625 53.90625 55.328125 
Q 53.90625 49.265625 50.4375 45.09375 
Q 46.96875 40.921875 40.578125 39.3125 
z
" id="DejaVuSans-51"/>
      </defs>
      <g transform="translate(113.711812 531.398438)scale(0.1 -0.1)">
       <use xlink:href="#DejaVuSans-50"/>
       <use x="63.623047" xlink:href="#DejaVuSans-51"/>
      </g>
     </g>
    </g>
    <g id="xtick_7">
     <g id="line2d_13">
      <path clip-path="url(#pa241513bd5)" d="M 149.936697 518.4 
L 149.936697 46.08 
" style="fill:none;stroke:#b0b0b0;stroke-linecap:square;stroke-width:0.8;"/>
     </g>
     <g id="line2d_14">
      <g>
       <use style="stroke:#000000;stroke-width:0.6;" x="149.936697" xlink:href="#m9dd2d707e5" y="518.4"/>
      </g>
     </g>
     <g id="text_7">
      <!-- 30 -->
      <defs>
       <path d="M 31.78125 66.40625 
Q 24.171875 66.40625 20.328125 58.90625 
Q 16.5 51.421875 16.5 36.375 
Q 16.5 21.390625 20.328125 13.890625 
Q 24.171875 6.390625 31.78125 6.390625 
Q 39.453125 6.390625 43.28125 13.890625 
Q 47.125 21.390625 47.125 36.375 
Q 47.125 51.421875 43.28125 58.90625 
Q 39.453125 66.40625 31.78125 66.40625 
z
M 31.78125 74.21875 
Q 44.046875 74.21875 50.515625 64.515625 
Q 56.984375 54.828125 56.984375 36.375 
Q 56.984375 17.96875 50.515625 8.265625 
Q 44.046875 -1.421875 31.78125 -1.421875 
Q 19.53125 -1.421875 13.0625 8.265625 
Q 6.59375 17.96875 6.59375 36.375 
Q 6.59375 54.828125 13.0625 64.515625 
Q 19.53125 74.21875 31.78125 74.21875 
z
" id="DejaVuSans-48"/>
      </defs>
      <g transform="translate(143.574197 531.398438)scale(0.1 -0.1)">
       <use xlink:href="#DejaVuSans-51"/>
       <use x="63.623047" xlink:href="#DejaVuSans-48"/>
      </g>
     </g>
    </g>
    <g id="xtick_8">
     <g id="line2d_15">
      <path clip-path="url(#pa241513bd5)" d="M 179.799083 518.4 
L 179.799083 46.08 
" style="fill:none;stroke:#b0b0b0;stroke-linecap:square;stroke-width:0.8;"/>
     </g>
     <g id="line2d_16">
      <g>
       <use style="stroke:#000000;stroke-width:0.6;" x="179.799083" xlink:href="#m9dd2d707e5" y="518.4"/>
      </g>
     </g>
     <g id="text_8">
      <!-- 06 -->
      <defs>
       <path d="M 33.015625 40.375 
Q 26.375 40.375 22.484375 35.828125 
Q 18.609375 31.296875 18.609375 23.390625 
Q 18.609375 15.53125 22.484375 10.953125 
Q 26.375 6.390625 33.015625 6.390625 
Q 39.65625 6.390625 43.53125 10.953125 
Q 47.40625 15.53125 47.40625 23.390625 
Q 47.40625 31.296875 43.53125 35.828125 
Q 39.65625 40.375 33.015625 40.375 
z
M 52.59375 71.296875 
L 52.59375 62.3125 
Q 48.875 64.0625 45.09375 64.984375 
Q 41.3125 65.921875 37.59375 65.921875 
Q 27.828125 65.921875 22.671875 59.328125 
Q 17.53125 52.734375 16.796875 39.40625 
Q 19.671875 43.65625 24.015625 45.921875 
Q 28.375 48.1875 33.59375 48.1875 
Q 44.578125 48.1875 50.953125 41.515625 
Q 57.328125 34.859375 57.328125 23.390625 
Q 57.328125 12.15625 50.6875 5.359375 
Q 44.046875 -1.421875 33.015625 -1.421875 
Q 20.359375 -1.421875 13.671875 8.265625 
Q 6.984375 17.96875 6.984375 36.375 
Q 6.984375 53.65625 15.1875 63.9375 
Q 23.390625 74.21875 37.203125 74.21875 
Q 40.921875 74.21875 44.703125 73.484375 
Q 48.484375 72.75 52.59375 71.296875 
z
" id="DejaVuSans-54"/>
      </defs>
      <g transform="translate(173.436583 531.398438)scale(0.1 -0.1)">
       <use xlink:href="#DejaVuSans-48"/>
       <use x="63.623047" xlink:href="#DejaVuSans-54"/>
      </g>
     </g>
    </g>
    <g id="xtick_9">
     <g id="line2d_17">
      <path clip-path="url(#pa241513bd5)" d="M 209.661468 518.4 
L 209.661468 46.08 
" style="fill:none;stroke:#b0b0b0;stroke-linecap:square;stroke-width:0.8;"/>
     </g>
     <g id="line2d_18">
      <g>
       <use style="stroke:#000000;stroke-width:0.6;" x="209.661468" xlink:href="#m9dd2d707e5" y="518.4"/>
      </g>
     </g>
     <g id="text_9">
      <!-- 13 -->
      <defs>
       <path d="M 12.40625 8.296875 
L 28.515625 8.296875 
L 28.515625 63.921875 
L 10.984375 60.40625 
L 10.984375 69.390625 
L 28.421875 72.90625 
L 38.28125 72.90625 
L 38.28125 8.296875 
L 54.390625 8.296875 
L 54.390625 0 
L 12.40625 0 
z
" id="DejaVuSans-49"/>
      </defs>
      <g transform="translate(203.298968 531.398438)scale(0.1 -0.1)">
       <use xlink:href="#DejaVuSans-49"/>
       <use x="63.623047" xlink:href="#DejaVuSans-51"/>
      </g>
     </g>
    </g>
    <g id="xtick_10">
     <g id="line2d_19">
      <path clip-path="url(#pa241513bd5)" d="M 239.523853 518.4 
L 239.523853 46.08 
" style="fill:none;stroke:#b0b0b0;stroke-linecap:square;stroke-width:0.8;"/>
     </g>
     <g id="line2d_20">
      <g>
       <use style="stroke:#000000;stroke-width:0.6;" x="239.523853" xlink:href="#m9dd2d707e5" y="518.4"/>
      </g>
     </g>
     <g id="text_10">
      <!-- 20 -->
      <g transform="translate(233.161353 531.398438)scale(0.1 -0.1)">
       <use xlink:href="#DejaVuSans-50"/>
       <use x="63.623047" xlink:href="#DejaVuSans-48"/>
      </g>
     </g>
    </g>
    <g id="xtick_11">
     <g id="line2d_21">
      <path clip-path="url(#pa241513bd5)" d="M 269.386239 518.4 
L 269.386239 46.08 
" style="fill:none;stroke:#b0b0b0;stroke-linecap:square;stroke-width:0.8;"/>
     </g>
     <g id="line2d_22">
      <g>
       <use style="stroke:#000000;stroke-width:0.6;" x="269.386239" xlink:href="#m9dd2d707e5" y="518.4"/>
      </g>
     </g>
     <g id="text_11">
      <!-- 27 -->
      <defs>
       <path d="M 8.203125 72.90625 
L 55.078125 72.90625 
L 55.078125 68.703125 
L 28.609375 0 
L 18.3125 0 
L 43.21875 64.59375 
L 8.203125 64.59375 
z
" id="DejaVuSans-55"/>
      </defs>
      <g transform="translate(263.023739 531.398438)scale(0.1 -0.1)">
       <use xlink:href="#DejaVuSans-50"/>
       <use x="63.623047" xlink:href="#DejaVuSans-55"/>
      </g>
     </g>
    </g>
    <g id="xtick_12">
     <g id="line2d_23">
      <path clip-path="url(#pa241513bd5)" d="M 299.248624 518.4 
L 299.248624 46.08 
" style="fill:none;stroke:#b0b0b0;stroke-linecap:square;stroke-width:0.8;"/>
     </g>
     <g id="line2d_24">
      <g>
       <use style="stroke:#000000;stroke-width:0.6;" x="299.248624" xlink:href="#m9dd2d707e5" y="518.4"/>
      </g>
     </g>
     <g id="text_12">
      <!-- 04 -->
      <defs>
       <path d="M 37.796875 64.3125 
L 12.890625 25.390625 
L 37.796875 25.390625 
z
M 35.203125 72.90625 
L 47.609375 72.90625 
L 47.609375 25.390625 
L 58.015625 25.390625 
L 58.015625 17.1875 
L 47.609375 17.1875 
L 47.609375 0 
L 37.796875 0 
L 37.796875 17.1875 
L 4.890625 17.1875 
L 4.890625 26.703125 
z
" id="DejaVuSans-52"/>
      </defs>
      <g transform="translate(292.886124 531.398438)scale(0.1 -0.1)">
       <use xlink:href="#DejaVuSans-48"/>
       <use x="63.623047" xlink:href="#DejaVuSans-52"/>
      </g>
     </g>
    </g>
    <g id="xtick_13">
     <g id="line2d_25">
      <path clip-path="url(#pa241513bd5)" d="M 329.111009 518.4 
L 329.111009 46.08 
" style="fill:none;stroke:#b0b0b0;stroke-linecap:square;stroke-width:0.8;"/>
     </g>
     <g id="line2d_26">
      <g>
       <use style="stroke:#000000;stroke-width:0.6;" x="329.111009" xlink:href="#m9dd2d707e5" y="518.4"/>
      </g>
     </g>
     <g id="text_13">
      <!-- 11 -->
      <g transform="translate(322.748509 531.398438)scale(0.1 -0.1)">
       <use xlink:href="#DejaVuSans-49"/>
       <use x="63.623047" xlink:href="#DejaVuSans-49"/>
      </g>
     </g>
    </g>
    <g id="xtick_14">
     <g id="line2d_27">
      <path clip-path="url(#pa241513bd5)" d="M 358.973394 518.4 
L 358.973394 46.08 
" style="fill:none;stroke:#b0b0b0;stroke-linecap:square;stroke-width:0.8;"/>
     </g>
     <g id="line2d_28">
      <g>
       <use style="stroke:#000000;stroke-width:0.6;" x="358.973394" xlink:href="#m9dd2d707e5" y="518.4"/>
      </g>
     </g>
     <g id="text_14">
      <!-- 18 -->
      <defs>
       <path d="M 31.78125 34.625 
Q 24.75 34.625 20.71875 30.859375 
Q 16.703125 27.09375 16.703125 20.515625 
Q 16.703125 13.921875 20.71875 10.15625 
Q 24.75 6.390625 31.78125 6.390625 
Q 38.8125 6.390625 42.859375 10.171875 
Q 46.921875 13.96875 46.921875 20.515625 
Q 46.921875 27.09375 42.890625 30.859375 
Q 38.875 34.625 31.78125 34.625 
z
M 21.921875 38.8125 
Q 15.578125 40.375 12.03125 44.71875 
Q 8.5 49.078125 8.5 55.328125 
Q 8.5 64.0625 14.71875 69.140625 
Q 20.953125 74.21875 31.78125 74.21875 
Q 42.671875 74.21875 48.875 69.140625 
Q 55.078125 64.0625 55.078125 55.328125 
Q 55.078125 49.078125 51.53125 44.71875 
Q 48 40.375 41.703125 38.8125 
Q 48.828125 37.15625 52.796875 32.3125 
Q 56.78125 27.484375 56.78125 20.515625 
Q 56.78125 9.90625 50.3125 4.234375 
Q 43.84375 -1.421875 31.78125 -1.421875 
Q 19.734375 -1.421875 13.25 4.234375 
Q 6.78125 9.90625 6.78125 20.515625 
Q 6.78125 27.484375 10.78125 32.3125 
Q 14.796875 37.15625 21.921875 38.8125 
z
M 18.3125 54.390625 
Q 18.3125 48.734375 21.84375 45.5625 
Q 25.390625 42.390625 31.78125 42.390625 
Q 38.140625 42.390625 41.71875 45.5625 
Q 45.3125 48.734375 45.3125 54.390625 
Q 45.3125 60.0625 41.71875 63.234375 
Q 38.140625 66.40625 31.78125 66.40625 
Q 25.390625 66.40625 21.84375 63.234375 
Q 18.3125 60.0625 18.3125 54.390625 
z
" id="DejaVuSans-56"/>
      </defs>
      <g transform="translate(352.610894 531.398438)scale(0.1 -0.1)">
       <use xlink:href="#DejaVuSans-49"/>
       <use x="63.623047" xlink:href="#DejaVuSans-56"/>
      </g>
     </g>
    </g>
    <g id="xtick_15">
     <g id="line2d_29">
      <path clip-path="url(#pa241513bd5)" d="M 388.83578 518.4 
L 388.83578 46.08 
" style="fill:none;stroke:#b0b0b0;stroke-linecap:square;stroke-width:0.8;"/>
     </g>
     <g id="line2d_30">
      <g>
       <use style="stroke:#000000;stroke-width:0.6;" x="388.83578" xlink:href="#m9dd2d707e5" y="518.4"/>
      </g>
     </g>
     <g id="text_15">
      <!-- 25 -->
      <defs>
       <path d="M 10.796875 72.90625 
L 49.515625 72.90625 
L 49.515625 64.59375 
L 19.828125 64.59375 
L 19.828125 46.734375 
Q 21.96875 47.46875 24.109375 47.828125 
Q 26.265625 48.1875 28.421875 48.1875 
Q 40.625 48.1875 47.75 41.5 
Q 54.890625 34.8125 54.890625 23.390625 
Q 54.890625 11.625 47.5625 5.09375 
Q 40.234375 -1.421875 26.90625 -1.421875 
Q 22.3125 -1.421875 17.546875 -0.640625 
Q 12.796875 0.140625 7.71875 1.703125 
L 7.71875 11.625 
Q 12.109375 9.234375 16.796875 8.0625 
Q 21.484375 6.890625 26.703125 6.890625 
Q 35.15625 6.890625 40.078125 11.328125 
Q 45.015625 15.765625 45.015625 23.390625 
Q 45.015625 31 40.078125 35.4375 
Q 35.15625 39.890625 26.703125 39.890625 
Q 22.75 39.890625 18.8125 39.015625 
Q 14.890625 38.140625 10.796875 36.28125 
z
" id="DejaVuSans-53"/>
      </defs>
      <g transform="translate(382.47328 531.398438)scale(0.1 -0.1)">
       <use xlink:href="#DejaVuSans-50"/>
       <use x="63.623047" xlink:href="#DejaVuSans-53"/>
      </g>
     </g>
    </g>
    <g id="xtick_16">
     <g id="line2d_31">
      <path clip-path="url(#pa241513bd5)" d="M 448.56055 518.4 
L 448.56055 46.08 
" style="fill:none;stroke:#b0b0b0;stroke-linecap:square;stroke-width:0.8;"/>
     </g>
     <g id="line2d_32">
      <g>
       <use style="stroke:#000000;stroke-width:0.6;" x="448.56055" xlink:href="#m9dd2d707e5" y="518.4"/>
      </g>
     </g>
     <g id="text_16">
      <!-- 08 -->
      <g transform="translate(442.19805 531.398438)scale(0.1 -0.1)">
       <use xlink:href="#DejaVuSans-48"/>
       <use x="63.623047" xlink:href="#DejaVuSans-56"/>
      </g>
     </g>
    </g>
    <g id="xtick_17">
     <g id="line2d_33">
      <path clip-path="url(#pa241513bd5)" d="M 478.422936 518.4 
L 478.422936 46.08 
" style="fill:none;stroke:#b0b0b0;stroke-linecap:square;stroke-width:0.8;"/>
     </g>
     <g id="line2d_34">
      <g>
       <use style="stroke:#000000;stroke-width:0.6;" x="478.422936" xlink:href="#m9dd2d707e5" y="518.4"/>
      </g>
     </g>
     <g id="text_17">
      <!-- 15 -->
      <g transform="translate(472.060436 531.398438)scale(0.1 -0.1)">
       <use xlink:href="#DejaVuSans-49"/>
       <use x="63.623047" xlink:href="#DejaVuSans-53"/>
      </g>
     </g>
    </g>
    <g id="xtick_18">
     <g id="line2d_35">
      <path clip-path="url(#pa241513bd5)" d="M 508.285321 518.4 
L 508.285321 46.08 
" style="fill:none;stroke:#b0b0b0;stroke-linecap:square;stroke-width:0.8;"/>
     </g>
     <g id="line2d_36">
      <g>
       <use style="stroke:#000000;stroke-width:0.6;" x="508.285321" xlink:href="#m9dd2d707e5" y="518.4"/>
      </g>
     </g>
     <g id="text_18">
      <!-- 22 -->
      <g transform="translate(501.922821 531.398438)scale(0.1 -0.1)">
       <use xlink:href="#DejaVuSans-50"/>
       <use x="63.623047" xlink:href="#DejaVuSans-50"/>
      </g>
     </g>
    </g>
    <g id="xtick_19">
     <g id="line2d_37">
      <path clip-path="url(#pa241513bd5)" d="M 538.147706 518.4 
L 538.147706 46.08 
" style="fill:none;stroke:#b0b0b0;stroke-linecap:square;stroke-width:0.8;"/>
     </g>
     <g id="line2d_38">
      <g>
       <use style="stroke:#000000;stroke-width:0.6;" x="538.147706" xlink:href="#m9dd2d707e5" y="518.4"/>
      </g>
     </g>
     <g id="text_19">
      <!-- 29 -->
      <defs>
       <path d="M 10.984375 1.515625 
L 10.984375 10.5 
Q 14.703125 8.734375 18.5 7.8125 
Q 22.3125 6.890625 25.984375 6.890625 
Q 35.75 6.890625 40.890625 13.453125 
Q 46.046875 20.015625 46.78125 33.40625 
Q 43.953125 29.203125 39.59375 26.953125 
Q 35.25 24.703125 29.984375 24.703125 
Q 19.046875 24.703125 12.671875 31.3125 
Q 6.296875 37.9375 6.296875 49.421875 
Q 6.296875 60.640625 12.9375 67.421875 
Q 19.578125 74.21875 30.609375 74.21875 
Q 43.265625 74.21875 49.921875 64.515625 
Q 56.59375 54.828125 56.59375 36.375 
Q 56.59375 19.140625 48.40625 8.859375 
Q 40.234375 -1.421875 26.421875 -1.421875 
Q 22.703125 -1.421875 18.890625 -0.6875 
Q 15.09375 0.046875 10.984375 1.515625 
z
M 30.609375 32.421875 
Q 37.25 32.421875 41.125 36.953125 
Q 45.015625 41.5 45.015625 49.421875 
Q 45.015625 57.28125 41.125 61.84375 
Q 37.25 66.40625 30.609375 66.40625 
Q 23.96875 66.40625 20.09375 61.84375 
Q 16.21875 57.28125 16.21875 49.421875 
Q 16.21875 41.5 20.09375 36.953125 
Q 23.96875 32.421875 30.609375 32.421875 
z
" id="DejaVuSans-57"/>
      </defs>
      <g transform="translate(531.785206 531.398438)scale(0.1 -0.1)">
       <use xlink:href="#DejaVuSans-50"/>
       <use x="63.623047" xlink:href="#DejaVuSans-57"/>
      </g>
     </g>
    </g>
    <g id="xtick_20">
     <g id="line2d_39">
      <path clip-path="url(#pa241513bd5)" d="M 568.010092 518.4 
L 568.010092 46.08 
" style="fill:none;stroke:#b0b0b0;stroke-linecap:square;stroke-width:0.8;"/>
     </g>
     <g id="line2d_40">
      <g>
       <use style="stroke:#000000;stroke-width:0.6;" x="568.010092" xlink:href="#m9dd2d707e5" y="518.4"/>
      </g>
     </g>
     <g id="text_20">
      <!-- 06 -->
      <g transform="translate(561.647592 531.398438)scale(0.1 -0.1)">
       <use xlink:href="#DejaVuSans-48"/>
       <use x="63.623047" xlink:href="#DejaVuSans-54"/>
      </g>
     </g>
    </g>
    <g id="xtick_21">
     <g id="line2d_41">
      <path clip-path="url(#pa241513bd5)" d="M 597.872477 518.4 
L 597.872477 46.08 
" style="fill:none;stroke:#b0b0b0;stroke-linecap:square;stroke-width:0.8;"/>
     </g>
     <g id="line2d_42">
      <g>
       <use style="stroke:#000000;stroke-width:0.6;" x="597.872477" xlink:href="#m9dd2d707e5" y="518.4"/>
      </g>
     </g>
     <g id="text_21">
      <!-- 13 -->
      <g transform="translate(591.509977 531.398438)scale(0.1 -0.1)">
       <use xlink:href="#DejaVuSans-49"/>
       <use x="63.623047" xlink:href="#DejaVuSans-51"/>
      </g>
     </g>
    </g>
    <g id="xtick_22">
     <g id="line2d_43">
      <path clip-path="url(#pa241513bd5)" d="M 627.734862 518.4 
L 627.734862 46.08 
" style="fill:none;stroke:#b0b0b0;stroke-linecap:square;stroke-width:0.8;"/>
     </g>
     <g id="line2d_44">
      <g>
       <use style="stroke:#000000;stroke-width:0.6;" x="627.734862" xlink:href="#m9dd2d707e5" y="518.4"/>
      </g>
     </g>
     <g id="text_22">
      <!-- 20 -->
      <g transform="translate(621.372362 531.398438)scale(0.1 -0.1)">
       <use xlink:href="#DejaVuSans-50"/>
       <use x="63.623047" xlink:href="#DejaVuSans-48"/>
      </g>
     </g>
    </g>
    <g id="xtick_23">
     <g id="line2d_45">
      <path clip-path="url(#pa241513bd5)" d="M 657.597248 518.4 
L 657.597248 46.08 
" style="fill:none;stroke:#b0b0b0;stroke-linecap:square;stroke-width:0.8;"/>
     </g>
     <g id="line2d_46">
      <g>
       <use style="stroke:#000000;stroke-width:0.6;" x="657.597248" xlink:href="#m9dd2d707e5" y="518.4"/>
      </g>
     </g>
     <g id="text_23">
      <!-- 27 -->
      <g transform="translate(651.234748 531.398438)scale(0.1 -0.1)">
       <use xlink:href="#DejaVuSans-50"/>
       <use x="63.623047" xlink:href="#DejaVuSans-55"/>
      </g>
     </g>
    </g>
    <g id="xtick_24">
     <g id="line2d_47">
      <path clip-path="url(#pa241513bd5)" d="M 687.459633 518.4 
L 687.459633 46.08 
" style="fill:none;stroke:#b0b0b0;stroke-linecap:square;stroke-width:0.8;"/>
     </g>
     <g id="line2d_48">
      <g>
       <use style="stroke:#000000;stroke-width:0.6;" x="687.459633" xlink:href="#m9dd2d707e5" y="518.4"/>
      </g>
     </g>
     <g id="text_24">
      <!-- 03 -->
      <g transform="translate(681.097133 531.398438)scale(0.1 -0.1)">
       <use xlink:href="#DejaVuSans-48"/>
       <use x="63.623047" xlink:href="#DejaVuSans-51"/>
      </g>
     </g>
    </g>
   </g>
   <g id="matplotlib.axis_2">
    <g id="ytick_1">
     <g id="line2d_49">
      <path clip-path="url(#pa241513bd5)" d="M 99 518.4 
L 712.8 518.4 
" style="fill:none;stroke:#b0b0b0;stroke-linecap:square;stroke-width:0.8;"/>
     </g>
     <g id="line2d_50">
      <defs>
       <path d="M 0 0 
L -3.5 0 
" id="m665b5ea954" style="stroke:#000000;stroke-width:0.8;"/>
      </defs>
      <g>
       <use style="stroke:#000000;stroke-width:0.8;" x="99" xlink:href="#m665b5ea954" y="518.4"/>
      </g>
     </g>
     <g id="text_25">
      <!-- 0 -->
      <g transform="translate(85.6375 522.199219)scale(0.1 -0.1)">
       <use xlink:href="#DejaVuSans-48"/>
      </g>
     </g>
    </g>
    <g id="ytick_2">
     <g id="line2d_51">
      <path clip-path="url(#pa241513bd5)" d="M 99 445.847005 
L 712.8 445.847005 
" style="fill:none;stroke:#b0b0b0;stroke-linecap:square;stroke-width:0.8;"/>
     </g>
     <g id="line2d_52">
      <g>
       <use style="stroke:#000000;stroke-width:0.8;" x="99" xlink:href="#m665b5ea954" y="445.847005"/>
      </g>
     </g>
     <g id="text_26">
      <!-- 5 -->
      <g transform="translate(85.6375 449.646223)scale(0.1 -0.1)">
       <use xlink:href="#DejaVuSans-53"/>
      </g>
     </g>
    </g>
    <g id="ytick_3">
     <g id="line2d_53">
      <path clip-path="url(#pa241513bd5)" d="M 99 373.294009 
L 712.8 373.294009 
" style="fill:none;stroke:#b0b0b0;stroke-linecap:square;stroke-width:0.8;"/>
     </g>
     <g id="line2d_54">
      <g>
       <use style="stroke:#000000;stroke-width:0.8;" x="99" xlink:href="#m665b5ea954" y="373.294009"/>
      </g>
     </g>
     <g id="text_27">
      <!-- 10 -->
      <g transform="translate(79.275 377.093228)scale(0.1 -0.1)">
       <use xlink:href="#DejaVuSans-49"/>
       <use x="63.623047" xlink:href="#DejaVuSans-48"/>
      </g>
     </g>
    </g>
    <g id="ytick_4">
     <g id="line2d_55">
      <path clip-path="url(#pa241513bd5)" d="M 99 300.741014 
L 712.8 300.741014 
" style="fill:none;stroke:#b0b0b0;stroke-linecap:square;stroke-width:0.8;"/>
     </g>
     <g id="line2d_56">
      <g>
       <use style="stroke:#000000;stroke-width:0.8;" x="99" xlink:href="#m665b5ea954" y="300.741014"/>
      </g>
     </g>
     <g id="text_28">
      <!-- 15 -->
      <g transform="translate(79.275 304.540233)scale(0.1 -0.1)">
       <use xlink:href="#DejaVuSans-49"/>
       <use x="63.623047" xlink:href="#DejaVuSans-53"/>
      </g>
     </g>
    </g>
    <g id="ytick_5">
     <g id="line2d_57">
      <path clip-path="url(#pa241513bd5)" d="M 99 228.188018 
L 712.8 228.188018 
" style="fill:none;stroke:#b0b0b0;stroke-linecap:square;stroke-width:0.8;"/>
     </g>
     <g id="line2d_58">
      <g>
       <use style="stroke:#000000;stroke-width:0.8;" x="99" xlink:href="#m665b5ea954" y="228.188018"/>
      </g>
     </g>
     <g id="text_29">
      <!-- 20 -->
      <g transform="translate(79.275 231.987237)scale(0.1 -0.1)">
       <use xlink:href="#DejaVuSans-50"/>
       <use x="63.623047" xlink:href="#DejaVuSans-48"/>
      </g>
     </g>
    </g>
    <g id="ytick_6">
     <g id="line2d_59">
      <path clip-path="url(#pa241513bd5)" d="M 99 155.635023 
L 712.8 155.635023 
" style="fill:none;stroke:#b0b0b0;stroke-linecap:square;stroke-width:0.8;"/>
     </g>
     <g id="line2d_60">
      <g>
       <use style="stroke:#000000;stroke-width:0.8;" x="99" xlink:href="#m665b5ea954" y="155.635023"/>
      </g>
     </g>
     <g id="text_30">
      <!-- 25 -->
      <g transform="translate(79.275 159.434242)scale(0.1 -0.1)">
       <use xlink:href="#DejaVuSans-50"/>
       <use x="63.623047" xlink:href="#DejaVuSans-53"/>
      </g>
     </g>
    </g>
    <g id="ytick_7">
     <g id="line2d_61">
      <path clip-path="url(#pa241513bd5)" d="M 99 83.082028 
L 712.8 83.082028 
" style="fill:none;stroke:#b0b0b0;stroke-linecap:square;stroke-width:0.8;"/>
     </g>
     <g id="line2d_62">
      <g>
       <use style="stroke:#000000;stroke-width:0.8;" x="99" xlink:href="#m665b5ea954" y="83.082028"/>
      </g>
     </g>
     <g id="text_31">
      <!-- 30 -->
      <g transform="translate(79.275 86.881246)scale(0.1 -0.1)">
       <use xlink:href="#DejaVuSans-51"/>
       <use x="63.623047" xlink:href="#DejaVuSans-48"/>
      </g>
     </g>
    </g>
   </g>
   <g id="line2d_63">
    <path clip-path="url(#pa241513bd5)" d="M 128.606422 512.413328 
L 132.872477 513.078513 
L 137.138532 510.445212 
L 141.404587 509.716789 
L 149.936697 511.539191 
L 154.202752 507.464637 
L 158.468807 503.842811 
L 162.734862 500.62341 
L 167.000917 502.598587 
L 171.266972 502.74201 
L 175.533028 504.481787 
L 179.799083 506.028255 
L 184.065138 505.790605 
L 188.331193 503.967071 
L 192.597248 505.57073 
L 196.863303 506.996204 
L 205.395413 506.344159 
L 209.661468 507.683697 
L 213.927523 508.874397 
L 218.193578 505.095931 
L 222.459633 501.737295 
L 226.725688 498.75184 
L 230.991743 494.485814 
L 235.257798 497.142946 
L 239.523853 497.892552 
L 243.789908 500.171157 
L 248.055963 500.584295 
L 252.322018 499.33924 
L 256.588073 501.457103 
L 260.854128 500.115069 
L 265.120183 500.534439 
L 269.386239 502.519502 
L 273.652294 499.447135 
L 277.918349 498.328431 
L 282.184404 498.946317 
L 286.450459 493.046393 
L 290.716514 492.638883 
L 294.982569 495.50123 
L 299.248624 489.984093 
L 303.514679 480.243106 
L 307.780734 484.482761 
L 312.046789 486.639054 
L 316.312844 482.106604 
L 320.578899 481.302337 
L 324.844954 482.199722 
L 329.111009 486.221975 
L 333.377064 488.185023 
L 337.643119 486.705376 
L 341.909174 490.227001 
L 346.175229 486.908179 
L 354.707339 487.426705 
L 358.973394 490.868182 
L 363.23945 493.927273 
L 367.505505 480.523577 
L 371.77156 462.160025 
L 376.037615 458.735179 
L 380.30367 446.017138 
L 384.569725 452.447389 
L 388.83578 459.775457 
L 393.101835 466.289295 
L 397.36789 464.01793 
L 401.633945 460.386649 
L 405.9 461.995711 
L 410.166055 466.650565 
L 414.43211 470.788214 
L 418.698165 476.078412 
L 422.96422 475.943944 
L 427.230275 467.762974 
L 431.49633 462.103288 
L 435.762385 453.847879 
L 440.02844 457.79576 
L 444.294495 462.917275 
L 448.56055 469.082023 
L 452.826606 461.663488 
L 457.092661 447.00779 
L 461.358716 448.491103 
L 465.624771 443.360448 
L 469.890826 440.412154 
L 474.156881 442.628315 
L 478.422936 451.047391 
L 482.688991 439.183549 
L 486.955046 431.862489 
L 491.221101 430.191747 
L 495.487156 428.706642 
L 499.753211 422.549683 
L 504.019266 429.975141 
L 508.285321 439.800125 
L 512.551376 442.084289 
L 516.817431 408.644304 
L 521.083486 409.55336 
L 525.349541 394.238522 
L 529.615596 408.034242 
L 533.881651 415.460237 
L 538.147706 420.448834 
L 542.413761 415.209409 
L 546.679817 418.613586 
L 550.945872 415.190366 
L 555.211927 416.984371 
L 559.477982 423.415907 
L 563.744037 429.132829 
L 568.010092 439.051404 
L 572.276147 443.031048 
L 576.542202 440.119355 
L 580.808257 406.897696 
L 585.074312 403.163953 
L 589.340367 401.457359 
L 593.606422 411.226408 
L 597.872477 421.522296 
L 602.138532 417.775886 
L 606.404587 393.48599 
L 610.670642 389.630148 
L 614.936697 399.101043 
L 619.202752 372.049263 
L 623.468807 388.310456 
L 627.734862 402.76485 
L 632.000917 384.979713 
L 636.266972 386.905879 
L 640.533028 366.045983 
L 644.799083 362.014453 
L 649.065138 369.716892 
L 653.331193 383.01266 
L 657.597248 394.83112 
L 661.863303 384.376664 
L 666.129358 389.594413 
L 670.395413 376.497236 
L 674.661468 369.692166 
L 678.927523 336.234307 
L 683.193578 353.250362 
L 683.193578 353.250362 
" style="fill:none;stroke:#ff0000;stroke-linecap:square;stroke-width:1.5;"/>
   </g>
   <g id="line2d_64">
    <path clip-path="url(#pa241513bd5)" d="M 128.606422 516.327057 
L 132.872477 516.327057 
L 137.138532 512.181172 
L 141.404587 510.108229 
L 149.936697 510.108229 
L 154.202752 503.889401 
L 158.468807 499.743515 
L 162.734862 493.524687 
L 167.000917 497.670573 
L 179.799083 497.670573 
L 184.065138 501.816458 
L 188.331193 503.889401 
L 192.597248 510.108229 
L 201.129358 510.108229 
L 205.395413 508.035286 
L 209.661468 508.035286 
L 213.927523 510.108229 
L 218.193578 508.035286 
L 230.991743 489.378802 
L 235.257798 491.451745 
L 239.523853 489.378802 
L 243.789908 489.378802 
L 248.055963 493.524687 
L 252.322018 495.59763 
L 256.588073 501.816458 
L 260.854128 505.962344 
L 265.120183 503.889401 
L 269.386239 505.962344 
L 273.652294 499.743515 
L 277.918349 497.670573 
L 282.184404 499.743515 
L 286.450459 489.378802 
L 290.716514 489.378802 
L 294.982569 491.451745 
L 303.514679 470.722317 
L 307.780734 474.868203 
L 316.312844 474.868203 
L 320.578899 472.79526 
L 324.844954 468.649375 
L 329.111009 479.014088 
L 333.377064 493.524687 
L 337.643119 487.305859 
L 350.441284 493.524687 
L 358.973394 493.524687 
L 363.23945 495.59763 
L 367.505505 481.087031 
L 371.77156 452.065833 
L 376.037615 447.919947 
L 380.30367 427.19052 
L 384.569725 429.263463 
L 393.101835 429.263463 
L 397.36789 439.628176 
L 401.633945 456.211718 
L 405.9 462.430546 
L 410.166055 485.232916 
L 418.698165 485.232916 
L 427.230275 472.79526 
L 431.49633 470.722317 
L 435.762385 458.284661 
L 440.02844 456.211718 
L 448.56055 456.211718 
L 457.092661 435.482291 
L 461.358716 441.701119 
L 465.624771 443.774062 
L 469.890826 433.409348 
L 474.156881 427.19052 
L 478.422936 427.19052 
L 482.688991 418.898749 
L 486.955046 425.117577 
L 491.221101 418.898749 
L 495.487156 420.971692 
L 499.753211 414.752864 
L 504.019266 418.898749 
L 508.285321 418.898749 
L 512.551376 435.482291 
L 516.817431 402.315207 
L 521.083486 402.315207 
L 525.349541 381.58578 
L 529.615596 402.315207 
L 533.881651 400.242265 
L 538.147706 391.950494 
L 542.413761 379.512837 
L 546.679817 423.044635 
L 550.945872 418.898749 
L 555.211927 441.701119 
L 559.477982 435.482291 
L 563.744037 435.482291 
L 568.010092 443.774062 
L 572.276147 458.284661 
L 576.542202 454.138776 
L 580.808257 418.898749 
L 585.074312 410.606978 
L 589.340367 398.169322 
L 593.606422 400.242265 
L 597.872477 398.169322 
L 602.138532 385.731666 
L 606.404587 354.637525 
L 610.670642 385.731666 
L 614.936697 400.242265 
L 619.202752 367.075181 
L 623.468807 371.221066 
L 627.734862 373.294009 
L 632.000917 352.564582 
L 636.266972 381.58578 
L 640.533028 358.78341 
L 644.799083 338.053983 
L 649.065138 377.439895 
L 657.597248 369.148124 
L 661.863303 377.439895 
L 666.129358 381.58578 
L 670.395413 391.950494 
L 674.661468 389.877551 
L 678.927523 338.053983 
L 683.193578 338.053983 
L 683.193578 338.053983 
" style="fill:none;stroke:#000000;stroke-linecap:square;stroke-width:1.5;"/>
   </g>
   <g id="patch_134">
    <path d="M 99 518.4 
L 99 46.08 
" style="fill:none;stroke:#000000;stroke-linecap:square;stroke-linejoin:miter;stroke-width:0.8;"/>
   </g>
   <g id="patch_135">
    <path d="M 712.8 518.4 
L 712.8 46.08 
" style="fill:none;stroke:#000000;stroke-linecap:square;stroke-linejoin:miter;stroke-width:0.8;"/>
   </g>
   <g id="patch_136">
    <path d="M 99 518.4 
L 712.8 518.4 
" style="fill:none;stroke:#000000;stroke-linecap:square;stroke-linejoin:miter;stroke-width:0.8;"/>
   </g>
   <g id="patch_137">
    <path d="M 99 46.08 
L 712.8 46.08 
" style="fill:none;stroke:#000000;stroke-linecap:square;stroke-linejoin:miter;stroke-width:0.8;"/>
   </g>
   <g id="text_32">
    <!-- Wuhan Coronavirus -->
    <defs>
     <path d="M 3.328125 72.90625 
L 13.28125 72.90625 
L 28.609375 11.28125 
L 43.890625 72.90625 
L 54.984375 72.90625 
L 70.3125 11.28125 
L 85.59375 72.90625 
L 95.609375 72.90625 
L 77.296875 0 
L 64.890625 0 
L 49.515625 63.28125 
L 33.984375 0 
L 21.578125 0 
z
" id="DejaVuSans-87"/>
     <path d="M 54.890625 33.015625 
L 54.890625 0 
L 45.90625 0 
L 45.90625 32.71875 
Q 45.90625 40.484375 42.875 44.328125 
Q 39.84375 48.1875 33.796875 48.1875 
Q 26.515625 48.1875 22.3125 43.546875 
Q 18.109375 38.921875 18.109375 30.90625 
L 18.109375 0 
L 9.078125 0 
L 9.078125 75.984375 
L 18.109375 75.984375 
L 18.109375 46.1875 
Q 21.34375 51.125 25.703125 53.5625 
Q 30.078125 56 35.796875 56 
Q 45.21875 56 50.046875 50.171875 
Q 54.890625 44.34375 54.890625 33.015625 
z
" id="DejaVuSans-104"/>
     <path id="DejaVuSans-32"/>
     <path d="M 64.40625 67.28125 
L 64.40625 56.890625 
Q 59.421875 61.53125 53.78125 63.8125 
Q 48.140625 66.109375 41.796875 66.109375 
Q 29.296875 66.109375 22.65625 58.46875 
Q 16.015625 50.828125 16.015625 36.375 
Q 16.015625 21.96875 22.65625 14.328125 
Q 29.296875 6.6875 41.796875 6.6875 
Q 48.140625 6.6875 53.78125 8.984375 
Q 59.421875 11.28125 64.40625 15.921875 
L 64.40625 5.609375 
Q 59.234375 2.09375 53.4375 0.328125 
Q 47.65625 -1.421875 41.21875 -1.421875 
Q 24.65625 -1.421875 15.125 8.703125 
Q 5.609375 18.84375 5.609375 36.375 
Q 5.609375 53.953125 15.125 64.078125 
Q 24.65625 74.21875 41.21875 74.21875 
Q 47.75 74.21875 53.53125 72.484375 
Q 59.328125 70.75 64.40625 67.28125 
z
" id="DejaVuSans-67"/>
     <path d="M 30.609375 48.390625 
Q 23.390625 48.390625 19.1875 42.75 
Q 14.984375 37.109375 14.984375 27.296875 
Q 14.984375 17.484375 19.15625 11.84375 
Q 23.34375 6.203125 30.609375 6.203125 
Q 37.796875 6.203125 41.984375 11.859375 
Q 46.1875 17.53125 46.1875 27.296875 
Q 46.1875 37.015625 41.984375 42.703125 
Q 37.796875 48.390625 30.609375 48.390625 
z
M 30.609375 56 
Q 42.328125 56 49.015625 48.375 
Q 55.71875 40.765625 55.71875 27.296875 
Q 55.71875 13.875 49.015625 6.21875 
Q 42.328125 -1.421875 30.609375 -1.421875 
Q 18.84375 -1.421875 12.171875 6.21875 
Q 5.515625 13.875 5.515625 27.296875 
Q 5.515625 40.765625 12.171875 48.375 
Q 18.84375 56 30.609375 56 
z
" id="DejaVuSans-111"/>
     <path d="M 2.984375 54.6875 
L 12.5 54.6875 
L 29.59375 8.796875 
L 46.6875 54.6875 
L 56.203125 54.6875 
L 35.6875 0 
L 23.484375 0 
z
" id="DejaVuSans-118"/>
     <path d="M 9.421875 54.6875 
L 18.40625 54.6875 
L 18.40625 0 
L 9.421875 0 
z
M 9.421875 75.984375 
L 18.40625 75.984375 
L 18.40625 64.59375 
L 9.421875 64.59375 
z
" id="DejaVuSans-105"/>
     <path d="M 44.28125 53.078125 
L 44.28125 44.578125 
Q 40.484375 46.53125 36.375 47.5 
Q 32.28125 48.484375 27.875 48.484375 
Q 21.1875 48.484375 17.84375 46.4375 
Q 14.5 44.390625 14.5 40.28125 
Q 14.5 37.15625 16.890625 35.375 
Q 19.28125 33.59375 26.515625 31.984375 
L 29.59375 31.296875 
Q 39.15625 29.25 43.1875 25.515625 
Q 47.21875 21.78125 47.21875 15.09375 
Q 47.21875 7.46875 41.1875 3.015625 
Q 35.15625 -1.421875 24.609375 -1.421875 
Q 20.21875 -1.421875 15.453125 -0.5625 
Q 10.6875 0.296875 5.421875 2 
L 5.421875 11.28125 
Q 10.40625 8.6875 15.234375 7.390625 
Q 20.0625 6.109375 24.8125 6.109375 
Q 31.15625 6.109375 34.5625 8.28125 
Q 37.984375 10.453125 37.984375 14.40625 
Q 37.984375 18.0625 35.515625 20.015625 
Q 33.0625 21.96875 24.703125 23.78125 
L 21.578125 24.515625 
Q 13.234375 26.265625 9.515625 29.90625 
Q 5.8125 33.546875 5.8125 39.890625 
Q 5.8125 47.609375 11.28125 51.796875 
Q 16.75 56 26.8125 56 
Q 31.78125 56 36.171875 55.265625 
Q 40.578125 54.546875 44.28125 53.078125 
z
" id="DejaVuSans-115"/>
    </defs>
    <g transform="translate(347.237813 26.642625)scale(0.12 -0.12)">
     <use xlink:href="#DejaVuSans-87"/>
     <use x="95.251953" xlink:href="#DejaVuSans-117"/>
     <use x="158.630859" xlink:href="#DejaVuSans-104"/>
     <use x="222.009766" xlink:href="#DejaVuSans-97"/>
     <use x="283.289062" xlink:href="#DejaVuSans-110"/>
     <use x="346.667969" xlink:href="#DejaVuSans-32"/>
     <use x="378.455078" xlink:href="#DejaVuSans-67"/>
     <use x="448.279297" xlink:href="#DejaVuSans-111"/>
     <use x="509.460938" xlink:href="#DejaVuSans-114"/>
     <use x="548.324219" xlink:href="#DejaVuSans-111"/>
     <use x="609.505859" xlink:href="#DejaVuSans-110"/>
     <use x="672.884766" xlink:href="#DejaVuSans-97"/>
     <use x="734.164062" xlink:href="#DejaVuSans-118"/>
     <use x="793.34375" xlink:href="#DejaVuSans-105"/>
     <use x="821.126953" xlink:href="#DejaVuSans-114"/>
     <use x="862.240234" xlink:href="#DejaVuSans-117"/>
     <use x="925.619141" xlink:href="#DejaVuSans-115"/>
    </g>
    <!-- Daily Deaths -->
    <defs>
     <path d="M 19.671875 64.796875 
L 19.671875 8.109375 
L 31.59375 8.109375 
Q 46.6875 8.109375 53.6875 14.9375 
Q 60.6875 21.78125 60.6875 36.53125 
Q 60.6875 51.171875 53.6875 57.984375 
Q 46.6875 64.796875 31.59375 64.796875 
z
M 9.8125 72.90625 
L 30.078125 72.90625 
Q 51.265625 72.90625 61.171875 64.09375 
Q 71.09375 55.28125 71.09375 36.53125 
Q 71.09375 17.671875 61.125 8.828125 
Q 51.171875 0 30.078125 0 
L 9.8125 0 
z
" id="DejaVuSans-68"/>
     <path d="M 56.203125 29.59375 
L 56.203125 25.203125 
L 14.890625 25.203125 
Q 15.484375 15.921875 20.484375 11.0625 
Q 25.484375 6.203125 34.421875 6.203125 
Q 39.59375 6.203125 44.453125 7.46875 
Q 49.3125 8.734375 54.109375 11.28125 
L 54.109375 2.78125 
Q 49.265625 0.734375 44.1875 -0.34375 
Q 39.109375 -1.421875 33.890625 -1.421875 
Q 20.796875 -1.421875 13.15625 6.1875 
Q 5.515625 13.8125 5.515625 26.8125 
Q 5.515625 40.234375 12.765625 48.109375 
Q 20.015625 56 32.328125 56 
Q 43.359375 56 49.78125 48.890625 
Q 56.203125 41.796875 56.203125 29.59375 
z
M 47.21875 32.234375 
Q 47.125 39.59375 43.09375 43.984375 
Q 39.0625 48.390625 32.421875 48.390625 
Q 24.90625 48.390625 20.390625 44.140625 
Q 15.875 39.890625 15.1875 32.171875 
z
" id="DejaVuSans-101"/>
     <path d="M 18.3125 70.21875 
L 18.3125 54.6875 
L 36.8125 54.6875 
L 36.8125 47.703125 
L 18.3125 47.703125 
L 18.3125 18.015625 
Q 18.3125 11.328125 20.140625 9.421875 
Q 21.96875 7.515625 27.59375 7.515625 
L 36.8125 7.515625 
L 36.8125 0 
L 27.59375 0 
Q 17.1875 0 13.234375 3.875 
Q 9.28125 7.765625 9.28125 18.015625 
L 9.28125 47.703125 
L 2.6875 47.703125 
L 2.6875 54.6875 
L 9.28125 54.6875 
L 9.28125 70.21875 
z
" id="DejaVuSans-116"/>
    </defs>
    <g transform="translate(367.542188 40.08)scale(0.12 -0.12)">
     <use xlink:href="#DejaVuSans-68"/>
     <use x="77.001953" xlink:href="#DejaVuSans-97"/>
     <use x="138.28125" xlink:href="#DejaVuSans-105"/>
     <use x="166.064453" xlink:href="#DejaVuSans-108"/>
     <use x="193.847656" xlink:href="#DejaVuSans-121"/>
     <use x="253.027344" xlink:href="#DejaVuSans-32"/>
     <use x="284.814453" xlink:href="#DejaVuSans-68"/>
     <use x="361.816406" xlink:href="#DejaVuSans-101"/>
     <use x="423.339844" xlink:href="#DejaVuSans-97"/>
     <use x="484.619141" xlink:href="#DejaVuSans-116"/>
     <use x="523.828125" xlink:href="#DejaVuSans-104"/>
     <use x="587.207031" xlink:href="#DejaVuSans-115"/>
    </g>
   </g>
   <g id="legend_1">
    <g id="patch_138">
     <path d="M 106 98.114375 
L 317.165625 98.114375 
Q 319.165625 98.114375 319.165625 96.114375 
L 319.165625 53.08 
Q 319.165625 51.08 317.165625 51.08 
L 106 51.08 
Q 104 51.08 104 53.08 
L 104 96.114375 
Q 104 98.114375 106 98.114375 
z
" style="fill:#ffffff;opacity:0.8;stroke:#cccccc;stroke-linejoin:miter;"/>
    </g>
    <g id="line2d_65">
     <path d="M 108 59.178437 
L 128 59.178437 
" style="fill:none;stroke:#ff0000;stroke-linecap:square;stroke-width:1.5;"/>
    </g>
    <g id="line2d_66"/>
    <g id="text_33">
     <!-- Exp. Moving Avg. (EMA);  = 8 days -->
     <defs>
      <path d="M 9.8125 72.90625 
L 55.90625 72.90625 
L 55.90625 64.59375 
L 19.671875 64.59375 
L 19.671875 43.015625 
L 54.390625 43.015625 
L 54.390625 34.71875 
L 19.671875 34.71875 
L 19.671875 8.296875 
L 56.78125 8.296875 
L 56.78125 0 
L 9.8125 0 
z
" id="DejaVuSans-69"/>
      <path d="M 54.890625 54.6875 
L 35.109375 28.078125 
L 55.90625 0 
L 45.3125 0 
L 29.390625 21.484375 
L 13.484375 0 
L 2.875 0 
L 24.125 28.609375 
L 4.6875 54.6875 
L 15.28125 54.6875 
L 29.78125 35.203125 
L 44.28125 54.6875 
z
" id="DejaVuSans-120"/>
      <path d="M 10.6875 12.40625 
L 21 12.40625 
L 21 0 
L 10.6875 0 
z
" id="DejaVuSans-46"/>
      <path d="M 31 75.875 
Q 24.46875 64.65625 21.28125 53.65625 
Q 18.109375 42.671875 18.109375 31.390625 
Q 18.109375 20.125 21.3125 9.0625 
Q 24.515625 -2 31 -13.1875 
L 23.1875 -13.1875 
Q 15.875 -1.703125 12.234375 9.375 
Q 8.59375 20.453125 8.59375 31.390625 
Q 8.59375 42.28125 12.203125 53.3125 
Q 15.828125 64.359375 23.1875 75.875 
z
" id="DejaVuSans-40"/>
      <path d="M 8.015625 75.875 
L 15.828125 75.875 
Q 23.140625 64.359375 26.78125 53.3125 
Q 30.421875 42.28125 30.421875 31.390625 
Q 30.421875 20.453125 26.78125 9.375 
Q 23.140625 -1.703125 15.828125 -13.1875 
L 8.015625 -13.1875 
Q 14.5 -2 17.703125 9.0625 
Q 20.90625 20.125 20.90625 31.390625 
Q 20.90625 42.671875 17.703125 53.65625 
Q 14.5 64.65625 8.015625 75.875 
z
" id="DejaVuSans-41"/>
      <path d="M 11.71875 51.703125 
L 22.015625 51.703125 
L 22.015625 39.3125 
L 11.71875 39.3125 
z
M 11.71875 12.40625 
L 22.015625 12.40625 
L 22.015625 4 
L 14.015625 -11.625 
L 7.71875 -11.625 
L 11.71875 4 
z
" id="DejaVuSans-59"/>
      <path d="M 36.234375 9.96875 
Q 37.984375 7.625 43.265625 7.625 
L 47.609375 7.625 
L 47.609375 0 
L 42.1875 0 
Q 33.40625 0 29.390625 4.6875 
Q 25.390625 9.46875 25.390625 19.828125 
L 25.390625 45.703125 
L 4.890625 45.703125 
L 4.890625 54.6875 
L 55.328125 54.6875 
L 55.328125 45.703125 
L 34.578125 45.703125 
L 34.578125 19.28125 
Q 34.578125 12.203125 36.234375 9.96875 
z
" id="DejaVuSans-964"/>
      <path d="M 10.59375 45.40625 
L 73.1875 45.40625 
L 73.1875 37.203125 
L 10.59375 37.203125 
z
M 10.59375 25.484375 
L 73.1875 25.484375 
L 73.1875 17.1875 
L 10.59375 17.1875 
z
" id="DejaVuSans-61"/>
      <path d="M 45.40625 46.390625 
L 45.40625 75.984375 
L 54.390625 75.984375 
L 54.390625 0 
L 45.40625 0 
L 45.40625 8.203125 
Q 42.578125 3.328125 38.25 0.953125 
Q 33.9375 -1.421875 27.875 -1.421875 
Q 17.96875 -1.421875 11.734375 6.484375 
Q 5.515625 14.40625 5.515625 27.296875 
Q 5.515625 40.1875 11.734375 48.09375 
Q 17.96875 56 27.875 56 
Q 33.9375 56 38.25 53.625 
Q 42.578125 51.265625 45.40625 46.390625 
z
M 14.796875 27.296875 
Q 14.796875 17.390625 18.875 11.75 
Q 22.953125 6.109375 30.078125 6.109375 
Q 37.203125 6.109375 41.296875 11.75 
Q 45.40625 17.390625 45.40625 27.296875 
Q 45.40625 37.203125 41.296875 42.84375 
Q 37.203125 48.484375 30.078125 48.484375 
Q 22.953125 48.484375 18.875 42.84375 
Q 14.796875 37.203125 14.796875 27.296875 
z
" id="DejaVuSans-100"/>
     </defs>
     <g transform="translate(136 62.678437)scale(0.1 -0.1)">
      <use xlink:href="#DejaVuSans-69"/>
      <use x="63.183594" xlink:href="#DejaVuSans-120"/>
      <use x="122.363281" xlink:href="#DejaVuSans-112"/>
      <use x="185.839844" xlink:href="#DejaVuSans-46"/>
      <use x="217.626953" xlink:href="#DejaVuSans-32"/>
      <use x="249.414062" xlink:href="#DejaVuSans-77"/>
      <use x="335.693359" xlink:href="#DejaVuSans-111"/>
      <use x="396.875" xlink:href="#DejaVuSans-118"/>
      <use x="456.054688" xlink:href="#DejaVuSans-105"/>
      <use x="483.837891" xlink:href="#DejaVuSans-110"/>
      <use x="547.216797" xlink:href="#DejaVuSans-103"/>
      <use x="610.693359" xlink:href="#DejaVuSans-32"/>
      <use x="642.480469" xlink:href="#DejaVuSans-65"/>
      <use x="705.013672" xlink:href="#DejaVuSans-118"/>
      <use x="764.193359" xlink:href="#DejaVuSans-103"/>
      <use x="827.669922" xlink:href="#DejaVuSans-46"/>
      <use x="859.457031" xlink:href="#DejaVuSans-32"/>
      <use x="891.244141" xlink:href="#DejaVuSans-40"/>
      <use x="930.257812" xlink:href="#DejaVuSans-69"/>
      <use x="993.441406" xlink:href="#DejaVuSans-77"/>
      <use x="1079.720703" xlink:href="#DejaVuSans-65"/>
      <use x="1148.128906" xlink:href="#DejaVuSans-41"/>
      <use x="1187.142578" xlink:href="#DejaVuSans-59"/>
      <use x="1220.833984" xlink:href="#DejaVuSans-32"/>
      <use x="1252.621094" xlink:href="#DejaVuSans-964"/>
      <use x="1312.826172" xlink:href="#DejaVuSans-32"/>
      <use x="1344.613281" xlink:href="#DejaVuSans-61"/>
      <use x="1428.402344" xlink:href="#DejaVuSans-32"/>
      <use x="1460.189453" xlink:href="#DejaVuSans-56"/>
      <use x="1523.8125" xlink:href="#DejaVuSans-32"/>
      <use x="1555.599609" xlink:href="#DejaVuSans-100"/>
      <use x="1619.076172" xlink:href="#DejaVuSans-97"/>
      <use x="1680.355469" xlink:href="#DejaVuSans-121"/>
      <use x="1739.535156" xlink:href="#DejaVuSans-115"/>
     </g>
    </g>
    <g id="line2d_67">
     <path d="M 108 73.856562 
L 128 73.856562 
" style="fill:none;stroke:#000000;stroke-linecap:square;stroke-width:1.5;"/>
    </g>
    <g id="line2d_68"/>
    <g id="text_34">
     <!-- 7-day Moving Avg -->
     <defs>
      <path d="M 4.890625 31.390625 
L 31.203125 31.390625 
L 31.203125 23.390625 
L 4.890625 23.390625 
z
" id="DejaVuSans-45"/>
     </defs>
     <g transform="translate(136 77.356562)scale(0.1 -0.1)">
      <use xlink:href="#DejaVuSans-55"/>
      <use x="63.623047" xlink:href="#DejaVuSans-45"/>
      <use x="99.707031" xlink:href="#DejaVuSans-100"/>
      <use x="163.183594" xlink:href="#DejaVuSans-97"/>
      <use x="224.462891" xlink:href="#DejaVuSans-121"/>
      <use x="283.642578" xlink:href="#DejaVuSans-32"/>
      <use x="315.429688" xlink:href="#DejaVuSans-77"/>
      <use x="401.708984" xlink:href="#DejaVuSans-111"/>
      <use x="462.890625" xlink:href="#DejaVuSans-118"/>
      <use x="522.070312" xlink:href="#DejaVuSans-105"/>
      <use x="549.853516" xlink:href="#DejaVuSans-110"/>
      <use x="613.232422" xlink:href="#DejaVuSans-103"/>
      <use x="676.708984" xlink:href="#DejaVuSans-32"/>
      <use x="708.496094" xlink:href="#DejaVuSans-65"/>
      <use x="771.029297" xlink:href="#DejaVuSans-118"/>
      <use x="830.208984" xlink:href="#DejaVuSans-103"/>
     </g>
    </g>
    <g id="patch_139">
     <path d="M 108 92.034687 
L 128 92.034687 
L 128 85.034687 
L 108 85.034687 
z
" style="fill:#1f77b4;"/>
    </g>
    <g id="text_35">
     <!-- Deaths -->
     <g transform="translate(136 92.034687)scale(0.1 -0.1)">
      <use xlink:href="#DejaVuSans-68"/>
      <use x="77.001953" xlink:href="#DejaVuSans-101"/>
      <use x="138.525391" xlink:href="#DejaVuSans-97"/>
      <use x="199.804688" xlink:href="#DejaVuSans-116"/>
      <use x="239.013672" xlink:href="#DejaVuSans-104"/>
      <use x="302.392578" xlink:href="#DejaVuSans-115"/>
     </g>
    </g>
   </g>
  </g>
 </g>
 <defs>
  <clipPath id="pa241513bd5">
   <rect height="472.32" width="613.8" x="99" y="46.08"/>
  </clipPath>
 </defs>
</svg>
